<svg width="158" height="153" viewBox="0 0 158 153" fill="none" xmlns="http://www.w3.org/2000/svg">
<g filter="url(#filter0_b_1552_78)">
<ellipse cx="78.5918" cy="76.1016" rx="78.5918" ry="76.1016" fill="white" fill-opacity="0.3"/>
<path d="M155.709 76.1016C155.709 117.273 121.228 150.729 78.5918 150.729C35.9559 150.729 1.47429 117.273 1.47429 76.1016C1.47429 34.9305 35.9559 1.47429 78.5918 1.47429C121.228 1.47429 155.709 34.9305 155.709 76.1016Z" stroke="#DBDBDB" stroke-opacity="0.7" stroke-width="2.94857"/>
</g>
<path d="M45.7281 87.065C45.9381 87.065 46.1598 87.1 46.3931 87.17C46.6498 87.24 46.9298 87.38 47.2331 87.59C47.6298 87.8933 48.0964 88.1617 48.6331 88.395C49.1931 88.6283 49.8348 88.745 50.5581 88.745C51.2814 88.745 51.9581 88.57 52.5881 88.22C53.2414 87.8467 53.7781 87.3333 54.1981 86.68C54.6181 86.0033 54.8281 85.1983 54.8281 84.265C54.8281 83.3783 54.6414 82.6433 54.2681 82.06C53.9181 81.4767 53.4398 81.0333 52.8331 80.73C52.2498 80.4267 51.6198 80.275 50.9431 80.275C50.4298 80.275 49.9981 80.3217 49.6481 80.415C49.3214 80.5083 48.9948 80.6133 48.6681 80.73C48.3648 80.8233 48.0031 80.87 47.5831 80.87C47.0464 80.87 46.6264 80.6833 46.3231 80.31C46.0431 79.9367 45.9031 79.4933 45.9031 78.98C45.9031 78.6533 45.9614 78.3617 46.0781 78.105C46.2181 77.8483 46.4164 77.5683 46.6731 77.265L52.8331 70.72L53.7781 71.525H45.1681C44.6081 71.525 44.1414 71.3383 43.7681 70.965C43.3948 70.5917 43.2081 70.125 43.2081 69.565C43.2081 69.0283 43.3948 68.585 43.7681 68.235C44.1414 67.8617 44.6081 67.675 45.1681 67.675H55.8781C56.6014 67.675 57.1381 67.8733 57.4881 68.27C57.8614 68.6667 58.0481 69.1683 58.0481 69.775C58.0481 70.0783 57.9664 70.3817 57.8031 70.685C57.6398 70.965 57.4414 71.2217 57.2081 71.455L51.0131 78.105L50.0681 76.915C50.3248 76.7983 50.6748 76.6933 51.1181 76.6C51.5848 76.5067 51.9698 76.46 52.2731 76.46C53.6498 76.46 54.8398 76.8217 55.8431 77.545C56.8698 78.245 57.6514 79.1667 58.1881 80.31C58.7481 81.43 59.0281 82.6433 59.0281 83.95C59.0281 85.6767 58.6431 87.17 57.8731 88.43C57.1031 89.69 56.0181 90.6583 54.6181 91.335C53.2181 92.0117 51.5848 92.35 49.7181 92.35C48.8548 92.35 48.0031 92.245 47.1631 92.035C46.3231 91.825 45.5998 91.545 44.9931 91.195C44.4798 90.915 44.1298 90.6117 43.9431 90.285C43.7798 89.935 43.6981 89.6083 43.6981 89.305C43.6981 88.7683 43.8848 88.2667 44.2581 87.8C44.6548 87.31 45.1448 87.065 45.7281 87.065ZM70.5819 92.35C69.3219 92.35 68.1786 92.0933 67.1519 91.58C66.1486 91.0433 65.2853 90.32 64.5619 89.41C63.8619 88.5 63.3136 87.4733 62.9169 86.33C62.5436 85.1867 62.3569 84.0083 62.3569 82.795C62.3569 82.0017 62.4386 81.045 62.6019 79.925C62.7886 78.805 63.1036 77.6267 63.5469 76.39C63.9903 75.1533 64.6086 73.9517 65.4019 72.785C66.1953 71.6183 67.1986 70.5683 68.4119 69.635C69.6486 68.7017 71.1536 67.99 72.9269 67.5C73.2069 67.43 73.4753 67.395 73.7319 67.395C74.2686 67.395 74.7469 67.535 75.1669 67.815C75.6103 68.095 75.8319 68.6083 75.8319 69.355C75.8319 69.8683 75.6569 70.3233 75.3069 70.72C74.9803 71.0933 74.5369 71.3617 73.9769 71.525C73.1836 71.7583 72.3903 72.1083 71.5969 72.575C70.8269 73.0183 70.1036 73.5667 69.4269 74.22C68.7736 74.8733 68.2019 75.62 67.7119 76.46C67.2453 77.2767 66.9069 78.1633 66.6969 79.12L65.7519 79.085C66.0786 78.6883 66.4753 78.2683 66.9419 77.825C67.4319 77.3583 68.0153 76.9617 68.6919 76.635C69.3919 76.285 70.2086 76.11 71.1419 76.11C72.0519 76.11 72.9503 76.32 73.8369 76.74C74.7469 77.16 75.5636 77.7433 76.2869 78.49C77.0336 79.2133 77.6286 80.0767 78.0719 81.08C78.5153 82.06 78.7369 83.11 78.7369 84.23C78.7369 85.7233 78.3636 87.0883 77.6169 88.325C76.8936 89.5617 75.9136 90.5417 74.6769 91.265C73.4636 91.9883 72.0986 92.35 70.5819 92.35ZM70.5819 88.5C71.3286 88.5 71.9936 88.3133 72.5769 87.94C73.1836 87.5667 73.6619 87.0533 74.0119 86.4C74.3619 85.7467 74.5369 85.0233 74.5369 84.23C74.5369 83.4133 74.3619 82.69 74.0119 82.06C73.6619 81.4067 73.1836 80.8933 72.5769 80.52C71.9936 80.1467 71.3286 79.96 70.5819 79.96C69.8353 79.96 69.1586 80.1467 68.5519 80.52C67.9686 80.8933 67.5019 81.4067 67.1519 82.06C66.8019 82.69 66.6269 83.4133 66.6269 84.23C66.6269 85.0233 66.8019 85.7467 67.1519 86.4C67.5019 87.0533 67.9686 87.5667 68.5519 87.94C69.1586 88.3133 69.8353 88.5 70.5819 88.5ZM90.6976 92.35C88.691 92.35 86.9876 91.825 85.5876 90.775C84.211 89.7017 83.161 88.22 82.4376 86.33C81.7143 84.4167 81.3526 82.2233 81.3526 79.75C81.3526 77.2533 81.7143 75.06 82.4376 73.17C83.161 71.28 84.211 69.81 85.5876 68.76C86.9876 67.6867 88.691 67.15 90.6976 67.15C92.7043 67.15 94.396 67.6867 95.7726 68.76C97.1726 69.81 98.2343 71.28 98.9576 73.17C99.681 75.06 100.043 77.2533 100.043 79.75C100.043 82.2233 99.681 84.4167 98.9576 86.33C98.2343 88.22 97.1726 89.7017 95.7726 90.775C94.396 91.825 92.7043 92.35 90.6976 92.35ZM90.6976 88.15C91.6776 88.15 92.5176 87.8467 93.2176 87.24C93.941 86.61 94.501 85.6767 94.8976 84.44C95.2943 83.18 95.4926 81.6167 95.4926 79.75C95.4926 77.86 95.2943 76.2967 94.8976 75.06C94.501 73.8233 93.941 72.9017 93.2176 72.295C92.5176 71.665 91.6776 71.35 90.6976 71.35C89.741 71.35 88.901 71.665 88.1776 72.295C87.4543 72.9017 86.8943 73.8233 86.4976 75.06C86.101 76.2967 85.9026 77.86 85.9026 79.75C85.9026 81.6167 86.101 83.18 86.4976 84.44C86.8943 85.6767 87.4543 86.61 88.1776 87.24C88.901 87.8467 89.741 88.15 90.6976 88.15ZM108.312 78.525C107.192 78.525 106.188 78.2683 105.302 77.755C104.438 77.2183 103.75 76.5183 103.237 75.655C102.747 74.7917 102.502 73.8583 102.502 72.855C102.502 71.805 102.747 70.8483 103.237 69.985C103.75 69.1217 104.438 68.4333 105.302 67.92C106.188 67.4067 107.192 67.15 108.312 67.15C109.455 67.15 110.458 67.4067 111.322 67.92C112.208 68.4333 112.897 69.1217 113.387 69.985C113.9 70.8483 114.157 71.805 114.157 72.855C114.157 73.8583 113.9 74.7917 113.387 75.655C112.897 76.5183 112.208 77.2183 111.322 77.755C110.458 78.2683 109.455 78.525 108.312 78.525ZM108.312 75.725C109.128 75.725 109.782 75.4333 110.272 74.85C110.762 74.2433 111.007 73.5783 111.007 72.855C111.007 72.085 110.762 71.4083 110.272 70.825C109.782 70.2417 109.128 69.95 108.312 69.95C107.518 69.95 106.877 70.23 106.387 70.79C105.897 71.35 105.652 72.0383 105.652 72.855C105.652 73.5783 105.897 74.2433 106.387 74.85C106.877 75.4333 107.518 75.725 108.312 75.725Z" fill="#323232"/>
<defs>
<filter id="filter0_b_1552_78" x="-7.86286" y="-7.86286" width="172.909" height="167.929" filterUnits="userSpaceOnUse" color-interpolation-filters="sRGB">
<feFlood flood-opacity="0" result="BackgroundImageFix"/>
<feGaussianBlur in="BackgroundImageFix" stdDeviation="3.93143"/>
<feComposite in2="SourceAlpha" operator="in" result="effect1_backgroundBlur_1552_78"/>
<feBlend mode="normal" in="SourceGraphic" in2="effect1_backgroundBlur_1552_78" result="shape"/>
</filter>
</defs>
</svg>
