<svg xmlns="http://www.w3.org/2000/svg" viewBox="0 0 822.06 263"><defs><style>.cls-1{fill:#ff4910;}.cls-2{fill:#442452;}.cls-2,.cls-3,.cls-5,.cls-6{stroke:#7d4343;}.cls-3{fill:#fff;}.cls-4{fill:#e74c26;}.cls-5{fill:none;}.cls-6{fill:#2d0d3b;}.cls-7{fill:#0b0107;}.cls-8{fill:#8205ff;}.cls-9{fill:#2d0d3c;}</style></defs><g id="Layer_2" data-name="Layer 2"><g id="Layer_1-2" data-name="Layer 1"><path class="cls-1" d="M404.91,139.63v22.79a18.41,18.41,0,0,1-2.86.62,25.59,25.59,0,0,1-3.85.31,12.25,12.25,0,0,1-3.36-.42,4.83,4.83,0,0,1-2.37-1.23,5.69,5.69,0,0,1-1.48-2.58,15.54,15.54,0,0,1-.49-4.33V100.33c.6-.14,1.56-.31,2.87-.52a18.63,18.63,0,0,1,3.76-.41,11.8,11.8,0,0,1,3.28.41,5.05,5.05,0,0,1,2.46,1.24,5.77,5.77,0,0,1,1.47,2.58,15.54,15.54,0,0,1,.49,4.33v16.4l17-24.65q5.56,0,7.94,2.68a8.66,8.66,0,0,1,2.46,6.19,12.17,12.17,0,0,1-1.07,5,26.2,26.2,0,0,1-3.44,5.37l-10.23,12.89q2,2.9,4.26,6t4.42,6.09c1.47,1.92,2.87,3.78,4.18,5.57s2.53,3.33,3.52,4.64a11.37,11.37,0,0,1-.66,4,8.84,8.84,0,0,1-1.8,3A6.86,6.86,0,0,1,429,163a7.19,7.19,0,0,1-2.95.62,7.54,7.54,0,0,1-5.48-2.07,35.8,35.8,0,0,1-4.1-5.05Zm74.51-1.86a38.81,38.81,0,0,1-1.56,11.45,23.82,23.82,0,0,1-4.42,8.35,18.17,18.17,0,0,1-6.72,5.16,21.25,21.25,0,0,1-8.76,1.75,20.36,20.36,0,0,1-8.76-1.85,20.08,20.08,0,0,1-6.8-5.26,26,26,0,0,1-4.34-8.46,40.2,40.2,0,0,1,0-22.18,24.73,24.73,0,0,1,4.34-8.35,19.3,19.3,0,0,1,6.8-5.36,20.22,20.22,0,0,1,8.76-1.86,19.31,19.31,0,0,1,8.76,2,18.71,18.71,0,0,1,6.72,5.36,23.87,23.87,0,0,1,4.42,8.36A36.22,36.22,0,0,1,479.42,137.77Zm-28.67,0c0,4.19.63,7.43,1.89,9.69a6,6,0,0,0,5.4,3.3,5.66,5.66,0,0,0,5.24-3.4c1.26-2.27,1.89-5.46,1.89-9.59s-.63-7.29-1.89-9.49a5.86,5.86,0,0,0-10.64,0Q450.75,131.58,450.75,137.77Zm49.38,25a16.19,16.19,0,0,1-2.62.62,20.88,20.88,0,0,1-3.6.31,16.54,16.54,0,0,1-3.28-.31,5,5,0,0,1-2.37-1.24,6.39,6.39,0,0,1-1.56-2.48,15.41,15.41,0,0,1-.49-4.22V124.46a10.84,10.84,0,0,1,.66-4,9.78,9.78,0,0,1,2-3.09,13.18,13.18,0,0,1,3.2-2.37,27.46,27.46,0,0,1,4.17-2,25.48,25.48,0,0,1,4.59-1.24,21.94,21.94,0,0,1,4.75-.52,9.22,9.22,0,0,1,6.22,2c1.54,1.24,2.3,3.3,2.3,6.19a12.94,12.94,0,0,1-.33,2.89,15.22,15.22,0,0,1-.82,2.47,30.33,30.33,0,0,0-3.52.21,28.74,28.74,0,0,0-3.52.62c-1.15.27-2.24.58-3.28.93a10.84,10.84,0,0,0-2.54,1Zm35.59-11a16.06,16.06,0,0,0,3-.31,7,7,0,0,0,2.54-1V142.1l-5.9.62a7.69,7.69,0,0,0-3.77,1.24,3.53,3.53,0,0,0-1.47,3.09,4.86,4.86,0,0,0,1.23,3.41C532.25,151.28,533.7,151.69,535.72,151.69Zm-.66-40.53a26.86,26.86,0,0,1,8,1.13,15.76,15.76,0,0,1,6.22,3.51,14.48,14.48,0,0,1,4,5.88,22.77,22.77,0,0,1,1.39,8.35v23.11a7.54,7.54,0,0,1-1.23,4.43,12.69,12.69,0,0,1-2.78,2.89q-5.33,4-15,4a27.81,27.81,0,0,1-7.86-1,17.24,17.24,0,0,1-6-3.09A14.13,14.13,0,0,1,518,155.1a19.4,19.4,0,0,1-1.31-7.43q0-7.11,3.36-10.93t10.4-4.75l10.73-1.44v-.72a4.5,4.5,0,0,0-2.13-4.23,10.92,10.92,0,0,0-6-1.34,22.32,22.32,0,0,0-6.06.82,27.39,27.39,0,0,0-5.33,2.07,7.09,7.09,0,0,1-1.8-2.79,11.39,11.39,0,0,1-.74-4,7.79,7.79,0,0,1,1-4.23,8.39,8.39,0,0,1,3.19-2.79,20.53,20.53,0,0,1,5.57-1.64A38.84,38.84,0,0,1,535.06,111.16Zm43.65,28.47v22.79a18.32,18.32,0,0,1-2.87.62,25.49,25.49,0,0,1-3.85.31,12.23,12.23,0,0,1-3.35-.42,4.91,4.91,0,0,1-2.38-1.23,5.77,5.77,0,0,1-1.47-2.58,15.54,15.54,0,0,1-.49-4.33V100.33c.6-.14,1.55-.31,2.86-.52a18.72,18.72,0,0,1,3.77-.41,11.8,11.8,0,0,1,3.28.41,5,5,0,0,1,2.45,1.24,5.69,5.69,0,0,1,1.48,2.58,15.54,15.54,0,0,1,.49,4.33v16.4l17-24.65c3.72,0,6.36.89,8,2.68a8.66,8.66,0,0,1,2.46,6.19,12.17,12.17,0,0,1-1.07,5,26.64,26.64,0,0,1-3.44,5.37l-10.24,12.89,4.26,6Q597.88,141,600,144t4.17,5.57q2.05,2.67,3.52,4.64a11.61,11.61,0,0,1-.65,4,8.86,8.86,0,0,1-1.81,3,6.75,6.75,0,0,1-2.45,1.86,7.23,7.23,0,0,1-2.95.62,7.55,7.55,0,0,1-5.49-2.07,35.77,35.77,0,0,1-4.09-5.05Zm51.95,12.06a16,16,0,0,0,3-.31,6.91,6.91,0,0,0,2.54-1V142.1l-5.89.62a7.66,7.66,0,0,0-3.77,1.24,3.53,3.53,0,0,0-1.47,3.09,4.85,4.85,0,0,0,1.22,3.41C627.19,151.28,628.63,151.69,630.66,151.69ZM630,111.16a26.91,26.91,0,0,1,8,1.13,15.83,15.83,0,0,1,6.22,3.51,14.46,14.46,0,0,1,4,5.88,22.56,22.56,0,0,1,1.4,8.35v23.11a7.54,7.54,0,0,1-1.23,4.43,13,13,0,0,1-2.79,2.89q-5.32,4-15,4a27.88,27.88,0,0,1-7.87-1,17.42,17.42,0,0,1-6-3.09A14.24,14.24,0,0,1,613,155.1a19.6,19.6,0,0,1-1.31-7.43q0-7.11,3.36-10.93t10.4-4.75l10.73-1.44v-.72A4.48,4.48,0,0,0,634,125.6a10.88,10.88,0,0,0-6-1.34,22.43,22.43,0,0,0-6.06.82,27.29,27.29,0,0,0-5.32,2.07,7.09,7.09,0,0,1-1.8-2.79,11.39,11.39,0,0,1-.74-4,7.88,7.88,0,0,1,1-4.23,8.42,8.42,0,0,1,3.2-2.79,20.53,20.53,0,0,1,5.57-1.64A38.84,38.84,0,0,1,630,111.16Zm47.58,0a22,22,0,0,1,8.43,1.55,19.82,19.82,0,0,1,6.47,3.81,10.87,10.87,0,0,1,2.54,3.2,9.17,9.17,0,0,1,1,4.54v36.1a24.29,24.29,0,0,1-1.64,9.38,17.69,17.69,0,0,1-4.51,6.6,16.75,16.75,0,0,1-6.63,3.92,25.71,25.71,0,0,1-8.11,1.24q-7.46,0-11.71-2.58t-4.26-8.15a11.44,11.44,0,0,1,.74-4.23,8.68,8.68,0,0,1,1.8-2.68,25.26,25.26,0,0,0,5.32,2.79,17.78,17.78,0,0,0,6.23,1.13,12,12,0,0,0,7-1.85c1.75-1.24,2.62-3.23,2.62-6v-1.65a16.69,16.69,0,0,1-8.19,1.86,18.87,18.87,0,0,1-7-1.34,16.7,16.7,0,0,1-5.82-4.33,24.17,24.17,0,0,1-4-7.63,36.81,36.81,0,0,1-1.47-11,34.39,34.39,0,0,1,1.55-10.93,21.66,21.66,0,0,1,4.42-7.64,17.4,17.4,0,0,1,6.72-4.53A23.08,23.08,0,0,1,677.58,111.16Zm5.08,15a7.94,7.94,0,0,0-1.72-.82,7.47,7.47,0,0,0-2.71-.41,7,7,0,0,0-6.06,2.88q-2,2.79-2,8,0,6,2,8.66a6.34,6.34,0,0,0,5.16,2.58,7.22,7.22,0,0,0,5.33-2Zm39,25.58a16.06,16.06,0,0,0,3-.31,7,7,0,0,0,2.54-1V142.1l-5.9.62a7.66,7.66,0,0,0-3.76,1.24,3.52,3.52,0,0,0-1.48,3.09,4.86,4.86,0,0,0,1.23,3.41C718.2,151.28,719.65,151.69,721.67,151.69ZM721,111.16a26.79,26.79,0,0,1,8,1.13,15.87,15.87,0,0,1,6.23,3.51,14.56,14.56,0,0,1,4,5.88,22.57,22.57,0,0,1,1.39,8.35v23.11a7.54,7.54,0,0,1-1.23,4.43,12.69,12.69,0,0,1-2.78,2.89q-5.32,4-15,4a27.86,27.86,0,0,1-7.86-1,17.33,17.33,0,0,1-6-3.09A14.13,14.13,0,0,1,704,155.1a19.6,19.6,0,0,1-1.31-7.43q0-7.11,3.36-10.93t10.4-4.75l10.73-1.44v-.72A4.48,4.48,0,0,0,725,125.6a10.92,10.92,0,0,0-6-1.34,22.37,22.37,0,0,0-6.06.82,27.29,27.29,0,0,0-5.32,2.07,7.22,7.22,0,0,1-1.81-2.79,11.38,11.38,0,0,1-.73-4,7.88,7.88,0,0,1,1-4.23,8.46,8.46,0,0,1,3.19-2.79,20.64,20.64,0,0,1,5.57-1.64A39,39,0,0,1,721,111.16Zm28.25-12.38a10.59,10.59,0,0,1,2-6.6,6.77,6.77,0,0,1,5.57-2.68,6.53,6.53,0,0,1,5.49,2.68,11.29,11.29,0,0,1,0,13.2,6.54,6.54,0,0,1-5.49,2.69,6.78,6.78,0,0,1-5.57-2.69A10.55,10.55,0,0,1,749.27,98.78Zm-2.79,71.07a8.17,8.17,0,0,0,2.62-4,17.53,17.53,0,0,0,.82-5.57V113.43c.6-.14,1.48-.31,2.62-.52a16.45,16.45,0,0,1,3.61-.41,14.56,14.56,0,0,1,3.19.31,5.05,5.05,0,0,1,2.46,1.24,5.72,5.72,0,0,1,1.47,2.58,12.18,12.18,0,0,1,.57,4.12V161.9a34.92,34.92,0,0,1-.81,7.84,19.51,19.51,0,0,1-2.38,6,10.57,10.57,0,0,1-3.68,3.92,8.39,8.39,0,0,1-4.84,1.45,6.63,6.63,0,0,1-5.65-2.79,11.33,11.33,0,0,1-2.13-6.8Z"/><path class="cls-2" d="M39.74,221.87h9.44a13.58,13.58,0,0,0,13.71-13.44,13.21,13.21,0,0,1,.68-4.18l2.25-6.74A22.27,22.27,0,0,1,70,190.07a23,23,0,0,1,17.46-8h.18a23.55,23.55,0,0,1,5.23.58l3,.67A25.08,25.08,0,0,1,107,189.05a24.3,24.3,0,0,1,6.94,10.49l1.55,4.64a13.48,13.48,0,0,1,.7,4.32,14,14,0,0,0,14.19,13.9h19a7.9,7.9,0,0,0,6.26-3.05,7.57,7.57,0,0,0,.66-8.27l-.47-.86a9.77,9.77,0,0,1-.65-1.48l-1.6-4.82a36.81,36.81,0,0,1,1-26l.86-2a48.74,48.74,0,0,1,9-14l5.6-6.12,5.35-4.42a25.48,25.48,0,0,1,16.2-5.79h.82a21.7,21.7,0,0,1,8.67,1.81,21.23,21.23,0,0,1,7.62,5.62l1.9,2.21a33.19,33.19,0,0,1,6.64,12.18l1.05,3.52a30.18,30.18,0,0,1,1.25,8.6v3.92A18.87,18.87,0,0,1,209,200.21l-.87.44a14.06,14.06,0,0,0-4.58,3.62l-10.38,12.48a3.5,3.5,0,0,0,1.83,5.62,4.75,4.75,0,0,0,.74.12l6.16.35a64.18,64.18,0,0,0,21.71-2.48l1.15-.34a66.53,66.53,0,0,0,12.49-5.09A65.7,65.7,0,0,0,255.1,201l6.86-7.62,5.79-8a57.38,57.38,0,0,0,8.31-16.54,56.46,56.46,0,0,0,.62-31.62l-1.37-5.05A95.75,95.75,0,0,0,270,117.45l-.78-1.71a120.14,120.14,0,0,0-9.44-17l-4.27-6.4-15.07-21-5.95-7.77A154.06,154.06,0,0,0,216.7,44.16l-4.24-3.9L208.23,36a147.43,147.43,0,0,0-27.54-21.6l-4.75-2.89a76,76,0,0,0-10.22-5.19l-5.11-2.13a48.73,48.73,0,0,0-28.15-2.79l-1.58.32A39.17,39.17,0,0,0,117.53,7.1,38.38,38.38,0,0,0,107.76,16l-3.25,4.19a67.54,67.54,0,0,0-9,15.54l-5,12.1a23,23,0,0,0-1,3.23l-1.18,4.83a16.29,16.29,0,0,0,9.64,18.84,15.87,15.87,0,0,0,2.23.77L107,77.33l12.91,3.77,17.22,4.29,14.27,2.38a18.28,18.28,0,0,1,3.63,1,17,17,0,0,1,10.53,13l2,12.22a18.36,18.36,0,0,1,.23,3v4a8.93,8.93,0,0,1-2.63,6.32,9.22,9.22,0,0,1-2.59,1.81l-8.07,3.79a61.06,61.06,0,0,1-18.41,5.33l-3.27.41H117A31.42,31.42,0,0,1,107,137l-1.94-.64A35.08,35.08,0,0,1,94,130.22l-.35-.29a32.4,32.4,0,0,1-9.6-13,31.66,31.66,0,0,1-2.29-11.84V78.25a3.43,3.43,0,0,0-4.84-3.07l-11,5.62A155.53,155.53,0,0,0,39.14,98.08l-7.2,5.78a90.12,90.12,0,0,0-9.55,8.87L16.5,119A59.47,59.47,0,0,0,1.56,148.33a58.67,58.67,0,0,0,0,22.41l1.21,6.18a54.83,54.83,0,0,0,7.45,18.7l9.79,15.5A23.27,23.27,0,0,0,39.74,221.87Z"/><path class="cls-3" d="M204.34,86.9l-7.21-6.6a11.57,11.57,0,0,0-16,.51l-4.63,4.73a5.19,5.19,0,0,0,6.59,7.95l4.41-2.81a5.78,5.78,0,0,1,8.07,1.89l.52.88a5.37,5.37,0,0,0,9.78-1.39A5.21,5.21,0,0,0,204.34,86.9Z"/><path class="cls-4" d="M139,241.22l65.16-87.68,44.47-59.29H258v5.58h8.27v5.07H273v7.6L164.36,256.92l-4.14,5.58H150.4l-7.24-5.58L139,252.36Z"/><path class="cls-5" d="M258,99.83V94.25h-9.31l-44.47,59.29L139,241.22v11.14l4.14,4.56,7.24,5.58h9.82l4.14-5.58M258,99.83h8.27v5.07M258,99.83,153.5,241.22M266.23,104.9H273v7.6L164.36,256.92m101.87-152-106,143.41m4.14,8.61-4.14-8.61m-9.82-7.09,9.82,7.09"/><path class="cls-5" d="M139,241.22h11.89l1.56,1,1-1"/><path class="cls-6" d="M188.09,161.65h1.82a4.18,4.18,0,0,0,.61-.05A3.43,3.43,0,0,1,194,167l-5.3,7.16a1.7,1.7,0,0,1-1.37.69,1.84,1.84,0,0,0-.33,0l-.62.12a8.08,8.08,0,0,0-3.27,1.43l-.12.09a8.3,8.3,0,0,0-.9.77l-.14.13a7.52,7.52,0,0,0-2,3.51l-.37,1.81a7.15,7.15,0,0,0-.14,1.46,7.4,7.4,0,0,1-1.33,4.21l-5.4,7.72-3.07,4.11a2.42,2.42,0,0,1-4.17-.56l-.72-2.6a40.19,40.19,0,0,1-1.19-6l-.35-2.85a19.79,19.79,0,0,1,2.78-12.68l1-1.68.22-.39A24.34,24.34,0,0,1,188.09,161.65Z"/><path class="cls-7" d="M275,77l-21.2,10.64h7.24l1,5.58h8.28v6.59l5.68-2,3.11,6.08,5.17-18.24Z"/><path class="cls-7" d="M289.5,69.42,277.61,76l8.27,7.6Z"/><path class="cls-5" d="M275,77l-21.2,10.64h7.24l1,5.58h8.28v6.59l5.68-2,3.11,6.08,5.17-18.24Z"/><path class="cls-5" d="M289.5,69.42,277.61,76l8.27,7.6Z"/><path class="cls-8" d="M342.69,198.71h6.75q6.75,0,8.7,4a7.55,7.55,0,0,1,.7,3.31,8.54,8.54,0,0,1-.49,3.1,6.29,6.29,0,0,1-1.36,2.17,8.31,8.31,0,0,1-4.61,2.29,8.2,8.2,0,0,0,4.12,5.16,4.19,4.19,0,0,0,1.61.51,6.28,6.28,0,0,0,1.53-.07v3.32h-.76a8.86,8.86,0,0,1-6.55-2.73,12.11,12.11,0,0,1-3.2-6h-3v8.72h-3.42Zm6.53,12.34a7.23,7.23,0,0,0,4.58-1.2,4.49,4.49,0,0,0,1.49-3.72,4.13,4.13,0,0,0-3.13-4.34,8.89,8.89,0,0,0-2.65-.34h-3.4v9.6Zm21.89,11.72q-9.67,0-9.67-9.45a8.37,8.37,0,0,1,2.68-6.51,7.9,7.9,0,0,1,5.51-2.22,6.5,6.5,0,0,1,5.26,2.26,8.48,8.48,0,0,1,1.76,5.62v1.33H365q0,4.84,3.95,5.91a11.44,11.44,0,0,0,2.89.26,14.18,14.18,0,0,0,3.84-.53v2.89A20.47,20.47,0,0,1,371.11,222.77Zm2.12-11.48a4.31,4.31,0,0,0-.9-2.77,3.58,3.58,0,0,0-2.93-1.3,4.29,4.29,0,0,0-3.19,1.25,3.85,3.85,0,0,0-1.13,2.82Zm11.16-11.55a1.83,1.83,0,0,1-.65,1.5,2.73,2.73,0,0,1-3.18,0,2.16,2.16,0,0,1,0-3,2.73,2.73,0,0,1,3.18,0A1.82,1.82,0,0,1,384.39,199.74Zm-4,5.12h3.42V222.5h-3.42Zm16.75,2.67a6.66,6.66,0,0,0-4.53,1.73V222.5h-3.42V204.86h3.16l.24,1.92a9.24,9.24,0,0,1,5.76-2.19,5.51,5.51,0,0,1,4.62,1.88c1,1.32,1.54,3.45,1.54,6.39v9.64h-3.42v-9.64c0-2.82-.77-4.51-2.29-5.06A4.82,4.82,0,0,0,397.14,207.53Zm10.08-2.67h3.68l4.8,14.31,4.82-14.31h3.65l-6.75,17.64H414Zm28.12,17.91q-9.68,0-9.68-9.45a8.41,8.41,0,0,1,2.68-6.51,7.92,7.92,0,0,1,5.51-2.22,6.48,6.48,0,0,1,5.26,2.26,8.48,8.48,0,0,1,1.76,5.62v1.33H429.22q0,4.84,3.94,5.91a11.44,11.44,0,0,0,2.89.26,14.25,14.25,0,0,0,3.85-.53v2.89A20.53,20.53,0,0,1,435.34,222.77Zm2.11-11.48a4.31,4.31,0,0,0-.9-2.77,3.56,3.56,0,0,0-2.92-1.3,4.31,4.31,0,0,0-3.2,1.25,3.89,3.89,0,0,0-1.13,2.82Zm15.13-3.76a6.66,6.66,0,0,0-4.53,1.73V222.5h-3.42V204.86h3.16l.24,1.92a9.24,9.24,0,0,1,5.76-2.19,5.51,5.51,0,0,1,4.62,1.88q1.53,2,1.53,6.39v9.64h-3.41v-9.64c0-2.82-.77-4.51-2.29-5.06A4.82,4.82,0,0,0,452.58,207.53Zm18.83,12.27a5.25,5.25,0,0,0,1.71.21,5.79,5.79,0,0,0,1.91-.28v2.74a5.85,5.85,0,0,1-1,.1l-1.07,0h-.55a5.62,5.62,0,0,1-4.87-2.15,7.7,7.7,0,0,1-1.27-4.61v-8.36H463.7v-1.61l2.53-1,.82-4.37h2.6v4.37h5.47v2.62h-5.47v8.34C469.65,218.05,470.24,219.38,471.41,219.8Zm12.24-20.06a1.83,1.83,0,0,1-.65,1.5,2.73,2.73,0,0,1-3.18,0,2.16,2.16,0,0,1,0-3,2.73,2.73,0,0,1,3.18,0A1.82,1.82,0,0,1,483.65,199.74Zm-4,5.12h3.42V222.5h-3.42Zm16.75,2.67a6.66,6.66,0,0,0-4.53,1.73V222.5h-3.42V204.86h3.16l.24,1.92a9.24,9.24,0,0,1,5.76-2.19,5.49,5.49,0,0,1,4.61,1.88q1.54,2,1.54,6.39v9.64h-3.42v-9.64q0-4.23-2.29-5.06A4.72,4.72,0,0,0,496.4,207.53Zm22.52,21.7a16.06,16.06,0,0,1-3.83.38,12.57,12.57,0,0,1-3.4-.34v-3a8.48,8.48,0,0,0,3.3.58,10.89,10.89,0,0,0,2.89-.26,3,3,0,0,0,1.45-.89c.64-.74,1-2.08,1-4v-.91a7,7,0,0,1-3.42,1.81,7.15,7.15,0,0,1-1.71.21,7.7,7.7,0,0,1-1.67-.19,7.52,7.52,0,0,1-1.61-.6,7.87,7.87,0,0,1-1.54-1.09,6.94,6.94,0,0,1-1.3-1.7,10.6,10.6,0,0,1-1.26-5.38,8.07,8.07,0,0,1,1.71-5.19,9.75,9.75,0,0,1,4.13-3,13.46,13.46,0,0,1,5.18-1,39.4,39.4,0,0,1,4.91.27v16.79Q523.71,228,518.92,229.23Zm1.37-21.87a17.63,17.63,0,0,0-2.15-.14,8.16,8.16,0,0,0-2.38.4,6.67,6.67,0,0,0-2.31,1.19,6.09,6.09,0,0,0-2.17,5c0,2.34.57,4,1.69,5.11a4.32,4.32,0,0,0,3.1,1.21,5,5,0,0,0,3.71-1.55,3.19,3.19,0,0,0,.51-.7Zm20.64-8.65h16.19v3H544.35v7h9.86v2.87h-9.86V222.5h-3.42Zm21.25,20.64a9,9,0,0,1-.91-2.28,14.71,14.71,0,0,1-.32-3.44,8.54,8.54,0,0,1,.9-3.9,8.89,8.89,0,0,1,2.39-2.94,11.28,11.28,0,0,1,7.1-2.2c1.47,0,2.58,0,3.33.1l1.66.17V222.5h-3.08l-.14-2a6,6,0,0,1-3.12,2,5.48,5.48,0,0,1-1.66.26,7.74,7.74,0,0,1-1.66-.18A7.08,7.08,0,0,1,565,222a6.84,6.84,0,0,1-1.54-1A6.94,6.94,0,0,1,562.18,219.35Zm10.73-12a16.1,16.1,0,0,0-2.19-.14,7.66,7.66,0,0,0-2.31.39,5.21,5.21,0,0,0-2.1,1.2,8.47,8.47,0,0,0-.26,10.12,3.9,3.9,0,0,0,2.84,1.17,4.48,4.48,0,0,0,3.52-1.55,3.45,3.45,0,0,0,.5-.7Zm13.21,15.39a31.84,31.84,0,0,1-4.33-.3v-3a19.66,19.66,0,0,0,4.52.53q4.58,0,4.58-1.93a1.46,1.46,0,0,0-.36-1.09,5.72,5.72,0,0,0-1.68-1.13l-2.49-1.15a13.69,13.69,0,0,1-3.15-1.94,4.49,4.49,0,0,1-1.35-3.25,4,4,0,0,1,2-3.46,10.57,10.57,0,0,1,5.95-1.43,28.59,28.59,0,0,1,3.89.27v2.93a20.61,20.61,0,0,0-3.76-.4,11.4,11.4,0,0,0-2.48.21,3.64,3.64,0,0,0-1.31.51,1.45,1.45,0,0,0-.7,1.25,1.67,1.67,0,0,0,.48,1.23,7.44,7.44,0,0,0,1.53,1l2.52,1.21a15.73,15.73,0,0,1,3.16,2,4.38,4.38,0,0,1,1.33,3.27,3.84,3.84,0,0,1-2.12,3.38A12,12,0,0,1,586.12,222.77Zm21.1-15.24a6.64,6.64,0,0,0-4.51,1.73V222.5h-3.42V197.07h3.42v9.69a9.19,9.19,0,0,1,5.73-2.17,5.52,5.52,0,0,1,4.63,1.88c1,1.32,1.54,3.45,1.54,6.39v9.64h-3.42v-9.64q0-4.23-2.31-5.06A4.78,4.78,0,0,0,607.22,207.53Zm16.46-7.79a1.8,1.8,0,0,1-.65,1.5,2.73,2.73,0,0,1-3.18,0,2.16,2.16,0,0,1,0-3,2.73,2.73,0,0,1,3.18,0A1.79,1.79,0,0,1,623.68,199.74Zm-4,5.12h3.42V222.5h-3.42Zm7.66,8.79a9,9,0,0,1,2.65-6.74,8.46,8.46,0,0,1,6.13-2.41,8.15,8.15,0,0,1,6,2.41,9.12,9.12,0,0,1,2.57,6.74,9,9,0,0,1-2.59,6.7,8.18,8.18,0,0,1-6,2.42,8.49,8.49,0,0,1-6.12-2.42A8.86,8.86,0,0,1,627.34,213.65Zm3.55,0c0,2.91.94,4.9,2.81,5.95a4.88,4.88,0,0,0,2.37.54,4.68,4.68,0,0,0,2.34-.54,4.87,4.87,0,0,0,1.58-1.48,8,8,0,0,0,1.14-4.47q0-4.35-2.75-6a4.39,4.39,0,0,0-2.29-.56,4.56,4.56,0,0,0-2.32.56,4.88,4.88,0,0,0-1.61,1.45A7.62,7.62,0,0,0,630.89,213.65Zm26-6.12a6.66,6.66,0,0,0-4.53,1.73V222.5h-3.42V204.86h3.16l.24,1.92a9.24,9.24,0,0,1,5.76-2.19,5.49,5.49,0,0,1,4.61,1.88q1.55,2,1.54,6.39v9.64h-3.42v-9.64q0-4.23-2.29-5.06A4.76,4.76,0,0,0,656.84,207.53Zm28.23-2.5q0,3.34,4.89,3.34h10.46v2.9H698.3V222.5h-3l-.12-2.17a9.84,9.84,0,0,1-4.82,2.25,11.45,11.45,0,0,1-2.25.19,9.43,9.43,0,0,1-2.7-.41,6.25,6.25,0,0,1-4.57-6.52,5.8,5.8,0,0,1,2.28-4.48,8.32,8.32,0,0,1,2.25-1.34V210a6.51,6.51,0,0,1-2.8-2,4.38,4.38,0,0,1-1-2.67,7.17,7.17,0,0,1,.42-2.5,5.2,5.2,0,0,1,1.53-2c1.64-1.36,4.14-2,7.51-2a46.12,46.12,0,0,1,4.72.19V202a21.81,21.81,0,0,0-4.17-.4,15.48,15.48,0,0,0-3.21.26,5.9,5.9,0,0,0-1.88.7A2.76,2.76,0,0,0,685.07,205Zm4.07,15a8,8,0,0,0,5.88-2.17v-6.61h-5.08a5.88,5.88,0,0,0-4.22,1.46,4.13,4.13,0,0,0-1.39,3.16,3.63,3.63,0,0,0,2.81,3.89A7.23,7.23,0,0,0,689.14,220Zm32.62-18.32H714.6v-3h17.74v3h-7.16V222.5h-3.42ZM747.6,208a8.28,8.28,0,0,0-2.26-.27,7.08,7.08,0,0,0-2.13.27,6.64,6.64,0,0,0-1.47.63,4.74,4.74,0,0,0-1.69,1.54V222.5h-3.42V204.86h3.28l.14,2.45a7.62,7.62,0,0,1,3.74-2.41,6.06,6.06,0,0,1,2-.31,7.34,7.34,0,0,1,1.78.17Zm11.62,14.78q-9.68,0-9.67-9.45a8.37,8.37,0,0,1,2.68-6.51,7.9,7.9,0,0,1,5.5-2.22,6.5,6.5,0,0,1,5.27,2.26,8.48,8.48,0,0,1,1.76,5.62v1.33H753.1q0,4.84,3.95,5.91a11.44,11.44,0,0,0,2.89.26,14.18,14.18,0,0,0,3.84-.53v2.89A20.47,20.47,0,0,1,759.22,222.77Zm2.12-11.48a4.26,4.26,0,0,0-.91-2.77,3.53,3.53,0,0,0-2.92-1.3,4.29,4.29,0,0,0-3.19,1.25,3.89,3.89,0,0,0-1.13,2.82Zm15.13-3.76a6.66,6.66,0,0,0-4.53,1.73V222.5h-3.42V204.86h3.16l.24,1.92a9.24,9.24,0,0,1,5.76-2.19,5.49,5.49,0,0,1,4.61,1.88q1.55,2,1.54,6.39v9.64h-3.42v-9.64q0-4.23-2.29-5.06A4.76,4.76,0,0,0,776.47,207.53Zm15.15-.74a9.89,9.89,0,0,1,3.34-1.67,12.2,12.2,0,0,1,3.24-.53c.93,0,1.64,0,2.14.07v-7.59h3.4V222.5h-3.06l-.14-2a6.09,6.09,0,0,1-3.16,2.05,5.54,5.54,0,0,1-1.67.25,7.73,7.73,0,0,1-1.66-.17,7.08,7.08,0,0,1-1.64-.56,7.57,7.57,0,0,1-1.54-1.06,6.94,6.94,0,0,1-1.31-1.63,9.64,9.64,0,0,1-1.23-5,10.35,10.35,0,0,1,.9-4.65A8.89,8.89,0,0,1,791.62,206.79Zm2.07,2a5.45,5.45,0,0,0-1.35,2.12,9.17,9.17,0,0,0-.46,3.12,8.72,8.72,0,0,0,.45,3,5,5,0,0,0,1.11,1.85,3.85,3.85,0,0,0,2.83,1.19,4.52,4.52,0,0,0,3.54-1.57,3.19,3.19,0,0,0,.51-.7V207.36l-.34,0a16.53,16.53,0,0,0-1.88-.1,7.39,7.39,0,0,0-2.31.4A5.11,5.11,0,0,0,793.69,208.83Zm20,13.94a31.84,31.84,0,0,1-4.33-.3v-3a19.6,19.6,0,0,0,4.52.53q4.57,0,4.58-1.93a1.46,1.46,0,0,0-.36-1.09,5.86,5.86,0,0,0-1.68-1.13l-2.49-1.15a13.69,13.69,0,0,1-3.15-1.94,4.49,4.49,0,0,1-1.35-3.25,4,4,0,0,1,2-3.46,10.56,10.56,0,0,1,5.94-1.43,28.62,28.62,0,0,1,3.9.27v2.93a20.7,20.7,0,0,0-3.76-.4,11.34,11.34,0,0,0-2.48.21,3.64,3.64,0,0,0-1.31.51,1.45,1.45,0,0,0-.7,1.25,1.67,1.67,0,0,0,.48,1.23,7.17,7.17,0,0,0,1.53,1l2.52,1.21a15.73,15.73,0,0,1,3.16,2A4.38,4.38,0,0,1,822,218a3.84,3.84,0,0,1-2.12,3.38A12,12,0,0,1,813.69,222.77Z"/><path class="cls-9" d="M342.69,198.71v-.05h-.05v.05Zm15.45,4,0,0h0Zm.21,6.41-.05,0h0ZM357,211.29l0,0h0Zm-4.61,2.29v-.05h-.05v.06Zm4.12,5.16,0,0h0Zm1.61.51v.05h0Zm1.53-.07h.05v-.06l-.06,0Zm0,3.32v.05h.05v-.05Zm-7.31-2.73,0,0h0Zm-3.2-6h.05v0h0Zm-3,0v-.05h-.05v.05Zm0,8.72v.05h.05v-.05Zm-3.42,0h-.05v.05h.05Zm9.47-20.71,0,.05h0Zm-6.05-.34v0h-.05v0Zm0,9.6h-.05v0h.05Zm-3.42-12.29h6.75v-.1h-6.75Zm6.75,0q6.74,0,8.66,4l.08,0q-2-4-8.74-4Zm8.66,4a7.6,7.6,0,0,1,.69,3.29h.1a7.53,7.53,0,0,0-.71-3.33Zm.69,3.29a8.43,8.43,0,0,1-.49,3.08l.09,0a8.43,8.43,0,0,0,.5-3.12Zm-.49,3.08a6.13,6.13,0,0,1-1.34,2.15l.07.07a6.24,6.24,0,0,0,1.36-2.18ZM357,211.25a8.21,8.21,0,0,1-4.59,2.28l0,.1a8.36,8.36,0,0,0,4.64-2.31Zm-4.63,2.35a8.27,8.27,0,0,0,4.15,5.19l0-.09a8.13,8.13,0,0,1-4.09-5.14Zm4.15,5.19a4.41,4.41,0,0,0,1.62.51v-.1a4.36,4.36,0,0,1-1.59-.5Zm1.62.51a6.47,6.47,0,0,0,1.55-.07l0-.09a6.88,6.88,0,0,1-1.52.06Zm1.49-.12v3.32h.1v-3.32Zm.05,3.27h-.76v.1h.76Zm-.76,0a8.86,8.86,0,0,1-6.52-2.72l-.07.07a8.93,8.93,0,0,0,6.59,2.75Zm-6.52-2.72a12.06,12.06,0,0,1-3.18-6l-.1,0a12.06,12.06,0,0,0,3.21,6Zm-3.23-6h-3v.1h3Zm-3.07.05v8.72h.1v-8.72Zm.05,8.67h-3.42v.1h3.42Zm-3.37.05V198.71h-.1V222.5Zm6.48-11.4a7.26,7.26,0,0,0,4.61-1.21l-.06-.07a7.24,7.24,0,0,1-4.55,1.18Zm4.61-1.21a4.54,4.54,0,0,0,1.51-3.76h-.1a4.49,4.49,0,0,1-1.47,3.69Zm1.51-3.76a4.73,4.73,0,0,0-.79-2.8,4.5,4.5,0,0,0-2.38-1.59l0,.1a4.3,4.3,0,0,1,2.32,1.55,4.51,4.51,0,0,1,.78,2.74Zm-3.17-4.39a9,9,0,0,0-2.66-.34v.09a8.72,8.72,0,0,1,2.63.35Zm-2.66-.34h-3.4v.09h3.4Zm-3.45,0v9.6h.1v-9.6Zm.05,9.65h3.11V211h-3.11Zm18-4.29,0,0h0Zm10.77,0,0,0h0Zm1.76,7v0h.05v0Zm-11.66,0v-.05h-.05v.05Zm10.68,5.64h.05v-.06h-.06Zm0,2.89,0,0h0v0Zm-2.44-11v.05h0v-.05Zm-.9-2.77,0,0h0Zm-6.12-.05,0,0h0Zm-1.13,2.82H365v.05h.05Zm6,11.43c-3.22,0-5.62-.78-7.22-2.34s-2.4-3.92-2.4-7.06h-.1q0,4.74,2.43,7.13t7.29,2.37Zm-9.62-9.4a8.34,8.34,0,0,1,2.66-6.47l-.06-.08a8.44,8.44,0,0,0-2.7,6.55Zm2.66-6.47a7.88,7.88,0,0,1,5.48-2.21v-.1a8,8,0,0,0-5.54,2.23Zm5.48-2.21a6.45,6.45,0,0,1,5.22,2.24l.08-.07a6.58,6.58,0,0,0-5.3-2.27Zm5.22,2.24a8.44,8.44,0,0,1,1.75,5.59h.1a8.56,8.56,0,0,0-1.77-5.66Zm1.75,5.59v1.33h.1v-1.33Zm0,1.28H365v.1h11.66Zm-11.71.05a6.94,6.94,0,0,0,1,3.93,5,5,0,0,0,3,2l0-.09a5,5,0,0,1-2.93-2,6.85,6.85,0,0,1-1-3.87Zm4,6a12,12,0,0,0,2.9.26v-.1a12.43,12.43,0,0,1-2.88-.25Zm2.9.26a14.38,14.38,0,0,0,3.86-.53l0-.1a14.11,14.11,0,0,1-3.83.53Zm3.79-.58v2.89h.1v-2.89Zm0,2.84a19.8,19.8,0,0,1-4.55.44v.1a20.72,20.72,0,0,0,4.58-.44Zm-2.38-11a4.29,4.29,0,0,0-.92-2.8l-.07.06a4.27,4.27,0,0,1,.89,2.74Zm-.92-2.8a3.6,3.6,0,0,0-3-1.32v.1a3.54,3.54,0,0,1,2.89,1.28Zm-3-1.32a4.35,4.35,0,0,0-3.23,1.26l.07.07a4.24,4.24,0,0,1,3.16-1.23Zm-3.23,1.26a4,4,0,0,0-1.14,2.86h.1a3.88,3.88,0,0,1,1.11-2.79Zm-1.09,2.91h8.15v-.1h-8.15Zm18.66-10.1,0,0h0Zm-3.18,0,0,0h0Zm0-3,0,0h0Zm3.18,0,0,0h0Zm-3.35,6.63v-.05h-.05v.05Zm3.42,0h.05v-.05h-.05Zm0,17.64v.05h.05v-.05Zm-3.42,0h-.05v.05h.05Zm3.95-22.76a1.77,1.77,0,0,1-.63,1.46l.06.08a1.88,1.88,0,0,0,.67-1.54Zm-.63,1.46a2.36,2.36,0,0,1-1.56.5v.1a2.48,2.48,0,0,0,1.62-.52Zm-1.56.5a2.37,2.37,0,0,1-1.56-.5l-.06.08a2.48,2.48,0,0,0,1.62.52Zm-1.55-.5a1.81,1.81,0,0,1-.6-1.46h-.1a1.94,1.94,0,0,0,.63,1.54Zm-.6-1.46a1.82,1.82,0,0,1,.59-1.47l-.06-.08a1.93,1.93,0,0,0-.63,1.55Zm.59-1.47a2.43,2.43,0,0,1,1.56-.5v-.1a2.48,2.48,0,0,0-1.62.52Zm1.56-.5a2.41,2.41,0,0,1,1.56.5l.06-.08a2.48,2.48,0,0,0-1.62-.52Zm1.56.5a1.76,1.76,0,0,1,.63,1.47h.1a1.86,1.86,0,0,0-.67-1.55Zm-3.32,6.64h3.42v-.1h-3.42Zm3.37,0V222.5h.1V204.86Zm.05,17.59h-3.42v.1h3.42Zm-3.37.05V204.86h-.1V222.5Zm12.17-13.24,0,0h0v0Zm0,13.24v.05h.05v-.05Zm-3.42,0h-.05v.05h.05Zm0-17.64v-.05h-.05v.05Zm3.16,0h0v-.05h0Zm.24,1.92h0v.09l.07-.05Zm10.38-.31,0,0h0Zm1.54,16v.05h0v-.05Zm-3.42,0h0v.05h0Zm-2.29-14.7,0,0h0Zm-1.66-.32a6.74,6.74,0,0,0-4.56,1.74l.06.07a6.68,6.68,0,0,1,4.5-1.71Zm-4.58,1.78V222.5h.1V209.26Zm.05,13.19h-3.42v.1h3.42Zm-3.37.05V204.86h-.1V222.5Zm-.05-17.59h3.16v-.1h-3.16Zm3.11,0,.24,1.91h.1l-.24-1.91Zm.32,1.95a9.15,9.15,0,0,1,5.73-2.18v-.1a9.27,9.27,0,0,0-5.79,2.2Zm5.73-2.18a5.45,5.45,0,0,1,4.58,1.86l.08-.06a5.56,5.56,0,0,0-4.66-1.9Zm4.58,1.86q1.51,2,1.52,6.36h.1c0-2.94-.51-5.09-1.54-6.42Zm1.52,6.36v9.64h.1v-9.64Zm.06,9.59h-3.42v.1h3.42Zm-3.37.05v-9.64H401v9.64Zm0-9.64c0-2.83-.77-4.55-2.33-5.1l0,.09c1.49.53,2.26,2.19,2.26,5Zm-2.33-5.1a4.61,4.61,0,0,0-1.67-.28v.1a4.66,4.66,0,0,1,1.64.27Zm8.41-2.9v-.05h-.07l0,.07Zm3.68,0h0v0h0Zm4.8,14.31h-.05l.05.14.05-.14Zm4.82-14.31v-.05h0v0Zm3.65,0,.05,0,0-.07h-.08Zm-6.75,17.64v.05h0v0Zm-3.43,0-.05,0v0h0Zm-6.77-17.59h3.68v-.1h-3.68Zm3.63,0,4.8,14.3.1,0-4.81-14.3Zm4.9,14.3,4.82-14.3-.1,0-4.82,14.3Zm4.77-14.27h3.65v-.1h-3.65Zm3.61-.06-6.75,17.63.09,0,6.75-17.64Zm-6.71,17.6H414v.1h3.43Zm-3.38,0-6.77-17.63-.1,0,6.77,17.64Zm14.3-15.67,0,0h0Zm10.77,0,0,0h0Zm1.76,7v0h.05v0Zm-11.65,0v-.05h-.05v.05Zm10.68,5.64H440v-.06h-.07Zm0,2.89v0h0v0Zm-2.45-11v.05h.05v-.05Zm-.9-2.77,0,0h0Zm-6.12-.05,0,0h0Zm-1.13,2.82h-.05v.05h.05Zm6,11.43c-3.22,0-5.62-.78-7.23-2.34s-2.4-3.92-2.4-7.06h-.1q0,4.74,2.43,7.13t7.3,2.37Zm-9.63-9.4a8.31,8.31,0,0,1,2.67-6.47l-.07-.08a8.44,8.44,0,0,0-2.7,6.55Zm2.67-6.47a7.86,7.86,0,0,1,5.47-2.21v-.1a8,8,0,0,0-5.54,2.23Zm5.47-2.21a6.45,6.45,0,0,1,5.22,2.24l.08-.07a6.57,6.57,0,0,0-5.3-2.27Zm5.22,2.24a8.39,8.39,0,0,1,1.75,5.59h.1a8.56,8.56,0,0,0-1.77-5.66Zm1.75,5.59v1.33h.1v-1.33Zm.05,1.28H429.22v.1h11.65Zm-11.7.05a7,7,0,0,0,1,3.93,5.07,5.07,0,0,0,3,2l0-.09a5,5,0,0,1-2.94-2,6.85,6.85,0,0,1-1-3.87Zm4,6a12,12,0,0,0,2.9.26v-.1a12.39,12.39,0,0,1-2.87-.25Zm2.9.26a14.32,14.32,0,0,0,3.86-.53l0-.1a14.05,14.05,0,0,1-3.83.53Zm3.8-.58v2.89h.1v-2.89Zm0,2.84a19.86,19.86,0,0,1-4.55.44v.1a20.62,20.62,0,0,0,4.57-.44Zm-2.39-11a4.34,4.34,0,0,0-.91-2.8l-.08.06a4.27,4.27,0,0,1,.89,2.74Zm-.91-2.8a3.62,3.62,0,0,0-3-1.32v.1a3.53,3.53,0,0,1,2.88,1.28Zm-3-1.32a4.32,4.32,0,0,0-3.23,1.26l.07.07a4.24,4.24,0,0,1,3.16-1.23Zm-3.24,1.26a4,4,0,0,0-1.14,2.86h.1a3.85,3.85,0,0,1,1.12-2.79Zm-1.09,2.91h8.15v-.1H429.3Zm18.75-2.08,0,0h0v0Zm0,13.24v.05h.05v-.05Zm-3.42,0h-.05v.05h.05Zm0-17.64v-.05h-.05v.05Zm3.16,0h0v-.05h0Zm.24,1.92h0v.09l.07-.05Zm10.38-.31,0,0h0Zm1.53,16v.05H460v-.05Zm-3.41,0h0v.05h0Zm-2.29-14.7,0,0h0Zm-1.66-.32a6.74,6.74,0,0,0-4.56,1.74l.06.07a6.68,6.68,0,0,1,4.5-1.71ZM448,209.26V222.5h.1V209.26Zm.05,13.19h-3.42v.1h3.42Zm-3.37.05V204.86h-.1V222.5Zm-.05-17.59h3.16v-.1h-3.16Zm3.11,0,.24,1.91h.1l-.24-1.91Zm.32,1.95a9.15,9.15,0,0,1,5.73-2.18v-.1a9.27,9.27,0,0,0-5.79,2.2Zm5.73-2.18a5.45,5.45,0,0,1,4.58,1.86l.08-.06a5.56,5.56,0,0,0-4.66-1.9Zm4.58,1.86q1.51,2,1.52,6.36h.1c0-2.94-.51-5.09-1.54-6.42Zm1.52,6.36v9.64h.1v-9.64Zm.05,9.59h-3.41v.1h3.41Zm-3.36.05v-9.64h-.1v9.64Zm0-9.64c0-2.83-.77-4.55-2.33-5.1l0,.09c1.49.53,2.26,2.19,2.26,5Zm-2.33-5.1a4.61,4.61,0,0,0-1.67-.28v.1a4.7,4.7,0,0,1,1.64.27Zm17.16,12,0-.05h0Zm3.62-.07h.06v-.07l-.07,0Zm0,2.74,0,0h0v0Zm-1,.1v0h0Zm-1.07,0v.05h0Zm-5.42-2.15,0,0h0Zm-1.27-13h0v0h0Zm-2.53,0h-.05v.05h.05Zm0-1.61v-.05l0,0v0Zm2.53-1,0,0h0v0Zm.82-4.37v-.05h0v0Zm2.6,0h.05v-.05h-.05Zm0,4.37h0v0h0Zm5.47,0h.05v-.05h-.05Zm0,2.62v.05h.05v-.05Zm-5.47,0v0h0v0Zm1.75,12.37a5.37,5.37,0,0,0,1.72.2V220a5.12,5.12,0,0,1-1.69-.2Zm1.72.2a5.94,5.94,0,0,0,1.93-.27l0-.1a5.75,5.75,0,0,1-1.9.27Zm1.86-.32v2.74h.11v-2.74Zm0,2.69a5.61,5.61,0,0,1-1,.1v.1a5.21,5.21,0,0,0,1.06-.11Zm-1,.1-1.08,0v.1l1.07,0Zm-1.07,0h-.55v.1h.55Zm-.55,0a5.58,5.58,0,0,1-4.83-2.13l-.08.06a5.68,5.68,0,0,0,4.91,2.17Zm-4.83-2.13a7.6,7.6,0,0,1-1.26-4.58h-.1a7.75,7.75,0,0,0,1.28,4.64Zm-1.26-4.58v-8.36h-.1v8.36Zm0-8.41H463.7v.1h2.53Zm-2.48,0v-1.61h-.1v1.61Zm0-1.56,2.53-1,0-.09-2.53,1Zm2.56-1,.82-4.37-.09,0-.83,4.37Zm.77-4.33h2.6v-.1h-2.6Zm2.55,0v4.37h.1v-4.37Zm0,4.42h5.47v-.1h-5.47Zm5.42,0v2.62h.1v-2.62Zm.05,2.57h-5.47v.1h5.47Zm-5.52,0v8.34h.1v-8.34Zm0,8.34c0,2.23.59,3.59,1.8,4l0-.1c-1.14-.41-1.73-1.7-1.73-3.93ZM483,201.24l0,0h0Zm-3.18,0,0,0h0Zm0-3,0,0h0Zm3.18,0,0,0h0Zm-3.35,6.63v-.05h0v.05Zm3.42,0h.05v-.05h-.05Zm0,17.64v.05h.05v-.05Zm-3.42,0h0v.05h0Zm4-22.76a1.77,1.77,0,0,1-.63,1.46l.06.08a1.88,1.88,0,0,0,.67-1.54ZM483,201.2a2.36,2.36,0,0,1-1.56.5v.1a2.48,2.48,0,0,0,1.62-.52Zm-1.56.5a2.36,2.36,0,0,1-1.56-.5l-.06.08a2.48,2.48,0,0,0,1.62.52Zm-1.56-.5a1.84,1.84,0,0,1-.59-1.46h-.1a1.91,1.91,0,0,0,.63,1.54Zm-.59-1.46a1.82,1.82,0,0,1,.59-1.47l-.06-.08a1.9,1.9,0,0,0-.63,1.55Zm.59-1.47a2.41,2.41,0,0,1,1.56-.5v-.1a2.48,2.48,0,0,0-1.62.52Zm1.56-.5a2.41,2.41,0,0,1,1.56.5l.06-.08a2.48,2.48,0,0,0-1.62-.52Zm1.56.5a1.76,1.76,0,0,1,.63,1.47h.1a1.86,1.86,0,0,0-.67-1.55Zm-3.32,6.64h3.42v-.1h-3.42Zm3.37,0V222.5h.1V204.86Zm.05,17.59h-3.42v.1h3.42Zm-3.37.05V204.86h-.1V222.5Zm12.17-13.24,0,0h0v0Zm0,13.24v.05h.05v-.05Zm-3.42,0h-.05v.05h.05Zm0-17.64v-.05h-.05v.05Zm3.16,0h.05v-.05h-.05Zm.24,1.92h-.05v.09l.07-.05Zm10.37-.31,0,0h0Zm1.54,16v.05h.05v-.05Zm-3.42,0h0v.05h0Zm-2.29-14.7v0h0Zm-1.65-.32a6.74,6.74,0,0,0-4.56,1.74l.06.07a6.66,6.66,0,0,1,4.5-1.71Zm-4.58,1.78V222.5h.1V209.26Zm.05,13.19h-3.42v.1h3.42Zm-3.37.05V204.86h-.1V222.5Zm-.05-17.59h3.16v-.1h-3.16Zm3.11,0,.24,1.91h.1l-.24-1.91Zm.32,1.95a9.15,9.15,0,0,1,5.73-2.18v-.1a9.23,9.23,0,0,0-5.79,2.2Zm5.73-2.18a5.41,5.41,0,0,1,4.57,1.86l.08-.06a5.53,5.53,0,0,0-4.65-1.9Zm4.57,1.86q1.53,2,1.53,6.36h.1c0-2.94-.51-5.09-1.55-6.42Zm1.53,6.36v9.64h.1v-9.64Zm.05,9.59h-3.42v.1h3.42Zm-3.36.05v-9.64h-.11v9.64Zm0-9.64c0-2.83-.77-4.55-2.33-5.1l0,.09c1.49.53,2.25,2.19,2.25,5Zm-2.33-5.1a4.61,4.61,0,0,0-1.67-.28v.1a4.7,4.7,0,0,1,1.64.27Zm20.85,21.47v0h0Zm-7.23,0h-.05v0l0,0Zm0-3,0,0-.07,0v.08Zm3.3.58v-.05h0Zm4.34-1.15,0,0h0Zm1-4.92h.05v-.12l-.09.08Zm-3.42,1.81v0h0Zm-3.38,0,0,.05h0Zm-1.61-.6,0,0h0Zm-1.54-1.09,0,0h0Zm-1.3-1.7,0,0h0Zm-1.26-5.38h0Zm1.71-5.19,0,0h0Zm4.13-3,0,0h0Zm10.09-.72h0v0h0Zm-3.42,2.5h.05v-.05h-.05Zm-4.53.26,0-.05Zm-2.31,1.19,0,0h0Zm-.48,10.1,0,0h0Zm6.81-.34,0,0h0Zm.51-.7,0,0h0Zm-1.38,11.31a16,16,0,0,1-3.82.38v.1a16.1,16.1,0,0,0,3.84-.38Zm-3.82.38a12,12,0,0,1-3.38-.34l0,.1a12.25,12.25,0,0,0,3.41.34Zm-3.35-.29v-3h-.1v3Zm-.07-3a8.43,8.43,0,0,0,3.32.59v-.1a8.37,8.37,0,0,1-3.28-.58Zm3.32.59a11,11,0,0,0,2.9-.26l0-.1a10.63,10.63,0,0,1-2.87.26Zm2.9-.26a3,3,0,0,0,1.48-.91l-.08-.06a2.9,2.9,0,0,1-1.43.87Zm1.48-.91c.65-.75,1-2.11,1-4h-.1c0,1.93-.32,3.25-1,4Zm1-4v-.91h-.1v.91Zm-.09-1a7,7,0,0,1-3.39,1.8l0,.1a7,7,0,0,0,3.44-1.83Zm-3.39,1.8a7.06,7.06,0,0,1-1.7.21v.1a7.23,7.23,0,0,0,1.72-.21Zm-1.7.21a7.68,7.68,0,0,1-1.66-.19l0,.1a7.87,7.87,0,0,0,1.68.19Zm-1.66-.19a7.4,7.4,0,0,1-1.6-.59l0,.09a7.73,7.73,0,0,0,1.61.6Zm-1.6-.59a7.75,7.75,0,0,1-1.52-1.09l-.07.07a7.21,7.21,0,0,0,1.55,1.1Zm-1.52-1.09a6.56,6.56,0,0,1-1.29-1.68l-.09.05a6.73,6.73,0,0,0,1.31,1.7Zm-1.29-1.68a10.52,10.52,0,0,1-1.26-5.36h-.1a10.64,10.64,0,0,0,1.27,5.41Zm-1.26-5.36a8,8,0,0,1,1.7-5.16l-.08-.07a8.15,8.15,0,0,0-1.72,5.23Zm1.7-5.16a9.65,9.65,0,0,1,4.11-3l0-.09a9.82,9.82,0,0,0-4.15,3Zm4.11-3a13.33,13.33,0,0,1,5.16-1v-.1a13.38,13.38,0,0,0-5.2,1Zm5.16-1a39.12,39.12,0,0,1,4.9.27v-.1a39.29,39.29,0,0,0-4.91-.27Zm4.86.22v16.79h.1V204.86Zm0,16.79a9.4,9.4,0,0,1-1.19,5.06,5.62,5.62,0,0,1-3.56,2.47l0,.1a5.71,5.71,0,0,0,3.62-2.51,9.49,9.49,0,0,0,1.21-5.12Zm-3.37-14.34a17.63,17.63,0,0,0-2.15-.14v.1a17.46,17.46,0,0,1,2.14.14Zm-2.15-.14a8.29,8.29,0,0,0-2.4.4l0,.09a8.41,8.41,0,0,1,2.37-.39Zm-2.4.4a6.65,6.65,0,0,0-2.32,1.2l.06.08a6.66,6.66,0,0,1,2.29-1.19Zm-2.32,1.2a6.13,6.13,0,0,0-2.19,5h.1a6,6,0,0,1,2.15-5Zm-2.19,5q0,3.51,1.71,5.15l.07-.07c-1.11-1.06-1.68-2.75-1.68-5.08Zm1.71,5.15a4.34,4.34,0,0,0,3.13,1.22v-.09a4.28,4.28,0,0,1-3.06-1.2Zm3.13,1.22a5,5,0,0,0,3.74-1.57l-.07-.06a4.93,4.93,0,0,1-3.67,1.54Zm3.74-1.57a3.08,3.08,0,0,0,.52-.71l-.09,0a3.31,3.31,0,0,1-.5.69Zm.53-.73V207.36h-.1v10.51Zm20.59-19.16v-.05h0v.05Zm16.19,0h0v-.05h0Zm0,3v.06h0v-.06Zm-12.77,0v-.05h-.05v.05Zm0,7h-.05v.05h.05Zm9.86,0h0v-.05h0Zm0,2.87v.05h0v-.05Zm-9.86,0v-.05h-.05v.05Zm0,10.94v.05h0v-.05Zm-3.42,0h0v.05h0Zm0-23.74h16.19v-.1H540.93Zm16.14,0v3h.1v-3Zm0,2.92H544.35v.11h12.77Zm-12.82.05v7h.1v-7Zm.05,7.06h9.86v-.1h-9.86Zm9.81-.05v2.87h.1v-2.87Zm.05,2.82h-9.86v.1h9.86Zm-9.91.05V222.5h.1V211.56Zm.05,10.89h-3.42v.1h3.42Zm-3.37.05V198.71h-.1V222.5Zm21.2-3.15,0,0h0Zm-.91-2.28h0Zm.58-7.34,0,0h0Zm2.39-2.94,0,0h0Zm10.43-2.1v-.05h0Zm1.66.17h0v0h0Zm0,17.64v.05h0v-.05Zm-3.08,0h0v.05h0Zm-.14-2h0v-.13l-.08.11Zm-3.12,2,0-.05h0Zm-5-.48,0,0h0Zm-1.54-1,0,0h0Zm9.42-13.6H573v0h-.05Zm-4.5.25,0,.05h0Zm-2.1,1.2,0,0h0ZM566.05,219l0,0h0Zm6.36-.38,0,0h0Zm.5-.7,0,0h0Zm-10.69,1.46a8.82,8.82,0,0,1-.9-2.28l-.1,0a9.12,9.12,0,0,0,.91,2.3Zm-.9-2.28a14.4,14.4,0,0,1-.33-3.42h-.09a14.8,14.8,0,0,0,.32,3.45Zm-.33-3.42a8.39,8.39,0,0,1,.91-3.87l-.09,0a8.47,8.47,0,0,0-.91,3.92Zm.91-3.87a8.7,8.7,0,0,1,2.37-2.93l-.06-.07a8.64,8.64,0,0,0-2.4,3Zm2.37-2.93a11.25,11.25,0,0,1,7.07-2.19v-.1a11.32,11.32,0,0,0-7.13,2.22Zm7.07-2.19c1.46,0,2.57,0,3.32.1v-.1c-.75-.07-1.86-.1-3.33-.1Zm3.33.05v.05h1.66v-.1h-1.66Zm1.61.17V222.5h.1V204.86Zm.05,17.59h-3.08v.1h3.08Zm-3,.05-.14-2h-.1l.14,2Zm-.23-2.06a6,6,0,0,1-3.1,2l0,.1a6.11,6.11,0,0,0,3.15-2.05Zm-3.1,2a5.36,5.36,0,0,1-1.64.26v.1a5.55,5.55,0,0,0,1.67-.26Zm-1.64.26a8.25,8.25,0,0,1-1.65-.17l0,.09a7.83,7.83,0,0,0,1.67.18Zm-1.65-.17a7.5,7.5,0,0,1-1.63-.56l0,.09a7.15,7.15,0,0,0,1.65.56Zm-1.63-.56a6.74,6.74,0,0,1-1.52-1l-.07.08a7.31,7.31,0,0,0,1.55,1Zm-1.52-1a7,7,0,0,1-1.31-1.61l-.09,0a7.28,7.28,0,0,0,1.33,1.64Zm9.38-13.61a16.1,16.1,0,0,0-2.19-.14v.1a16,16,0,0,1,2.18.14Zm-2.19-.14a7.72,7.72,0,0,0-2.32.39l0,.1a7.54,7.54,0,0,1,2.29-.39Zm-2.32.39a5.35,5.35,0,0,0-2.12,1.21l.07.08a5,5,0,0,1,2.08-1.19Zm-2.12,1.21a6.91,6.91,0,0,0-1.83,5.25h.1a6.79,6.79,0,0,1,1.8-5.18ZM564.45,214A6.81,6.81,0,0,0,566,219l.07-.07a6.76,6.76,0,0,1-1.54-4.87ZM566,219a3.9,3.9,0,0,0,2.87,1.19v-.09a3.82,3.82,0,0,1-2.8-1.17Zm2.87,1.19a4.54,4.54,0,0,0,3.56-1.57l-.07-.06a4.5,4.5,0,0,1-3.49,1.54Zm3.56-1.57a3.23,3.23,0,0,0,.5-.71l-.09,0a3.64,3.64,0,0,1-.48.69Zm.51-.73V207.38h-.1v10.49Zm8.83,4.6h0v0h0Zm0-3,0-.05h-.07v.06Zm8.74-2.49,0,0h0Zm-1.68-1.13,0,0h0Zm-2.49-1.15,0,.05h0Zm-3.15-1.94,0,0h0Zm.62-6.71,0,0h0Zm9.84-1.16h.05v0h0Zm0,2.93v.05h.06v-.06Zm-6.24-.19v0h0Zm-1.31.51,0,0h0Zm-.22,2.48,0,0h0Zm1.53,1,0,0h0Zm2.52,1.21,0,0h0Zm3.16,2,0,0h0Zm-.79,6.65,0,0h0Zm-6.2,1.3a31.8,31.8,0,0,1-4.32-.3v.1a31.84,31.84,0,0,0,4.33.3Zm-4.28-.25v-3h-.1v3Zm-.06-3a19.75,19.75,0,0,0,4.53.53v-.1a19.37,19.37,0,0,1-4.5-.53Zm4.53.53a9.2,9.2,0,0,0,3.45-.49,2.13,2.13,0,0,0,.88-.62,1.35,1.35,0,0,0,.3-.87h-.1a1.28,1.28,0,0,1-.28.81,2,2,0,0,1-.84.59,9.17,9.17,0,0,1-3.41.48Zm4.63-2a1.5,1.5,0,0,0-.38-1.13l-.07.07a1.44,1.44,0,0,1,.35,1.06Zm-.38-1.13a5.92,5.92,0,0,0-1.68-1.14l0,.09a6,6,0,0,1,1.66,1.12Zm-1.69-1.14-2.49-1.14,0,.09,2.49,1.14Zm-2.49-1.14a13.2,13.2,0,0,1-3.13-1.94l-.07.07a13,13,0,0,0,3.16,2Zm-3.13-1.94a4.41,4.41,0,0,1-1.34-3.21h-.1a4.52,4.52,0,0,0,1.37,3.28Zm-1.34-3.21a4,4,0,0,1,2-3.41l-.06-.09a4.09,4.09,0,0,0-2,3.5Zm2-3.41a10.46,10.46,0,0,1,5.92-1.43v-.1a10.62,10.62,0,0,0-6,1.44Zm5.92-1.43a28.33,28.33,0,0,1,3.88.27l0-.1a28.62,28.62,0,0,0-3.9-.27Zm3.84.22v2.93h.1v-2.93Zm.06,2.88a20.71,20.71,0,0,0-3.77-.4v.1a20.51,20.51,0,0,1,3.75.4Zm-3.77-.4a11.51,11.51,0,0,0-2.49.21l0,.1a11.08,11.08,0,0,1,2.46-.21Zm-2.49.21a4,4,0,0,0-1.33.52l.06.08a3.78,3.78,0,0,1,1.3-.5Zm-1.33.52a1.5,1.5,0,0,0-.72,1.29h.1a1.39,1.39,0,0,1,.68-1.21Zm-.72,1.29a1.7,1.7,0,0,0,.49,1.26l.07-.07a1.6,1.6,0,0,1-.46-1.19Zm.49,1.26a7.13,7.13,0,0,0,1.55,1l.05-.09a7.2,7.2,0,0,1-1.53-1Zm1.55,1,2.51,1.21.05-.09-2.51-1.21Zm2.51,1.21a15.41,15.41,0,0,1,3.15,2l.07-.07a15.34,15.34,0,0,0-3.17-2Zm3.15,2a4.32,4.32,0,0,1,1.32,3.23h.1a4.43,4.43,0,0,0-1.35-3.3Zm1.32,3.23a3.79,3.79,0,0,1-2.09,3.34l.05.09a3.91,3.91,0,0,0,2.14-3.43Zm-2.09,3.34a12,12,0,0,1-6.18,1.34v.1a12.08,12.08,0,0,0,6.23-1.35Zm10.41-12.12,0,0h0v0Zm0,13.24v.05h0v-.05Zm-3.42,0h0v.05h0Zm0-25.43v0h0v0Zm3.42,0h0v0h0Zm0,9.69h-.05v.1l.08-.06Zm10.36-.29,0,0h0Zm1.54,16v.05h0v-.05Zm-3.42,0h-.05v.05h.05Zm-2.31-14.7,0,0h0Zm-1.66-.32a6.73,6.73,0,0,0-4.54,1.74l.07.07a6.62,6.62,0,0,1,4.47-1.71Zm-4.56,1.78V222.5h.1V209.26Zm.05,13.19h-3.42v.1h3.42Zm-3.37.05V197.07h-.1V222.5Zm-.05-25.38h3.42V197h-3.42Zm3.37-.05v9.69h.1v-9.69Zm.08,9.73a9.16,9.16,0,0,1,5.7-2.16v-.1a9.24,9.24,0,0,0-5.76,2.18Zm5.7-2.16A5.45,5.45,0,0,1,613,206.5l.08-.06a5.56,5.56,0,0,0-4.67-1.9ZM613,206.5c1,1.31,1.53,3.43,1.53,6.36h.1c0-2.94-.51-5.09-1.55-6.42Zm1.53,6.36v9.64h.1v-9.64Zm.05,9.59h-3.42v.1h3.42Zm-3.37.05v-9.64h-.1v9.64Zm0-9.64c0-2.83-.77-4.55-2.34-5.1l0,.09c1.5.53,2.27,2.19,2.27,5Zm-2.34-5.1a4.7,4.7,0,0,0-1.68-.28v.1a4.62,4.62,0,0,1,1.64.27ZM623,201.24l0,0h0Zm-3.18,0,0,0h0Zm0-3,0,0h0Zm3.18,0,0,0h0Zm-3.35,6.63v-.05h0v.05Zm3.42,0h0v-.05h0Zm0,17.64v.05h0v-.05Zm-3.42,0h0v.05h0Zm4-22.76a1.77,1.77,0,0,1-.63,1.46l.06.08a1.88,1.88,0,0,0,.67-1.54ZM623,201.2a2.36,2.36,0,0,1-1.56.5v.1a2.48,2.48,0,0,0,1.62-.52Zm-1.56.5a2.35,2.35,0,0,1-1.55-.5l-.07.08a2.5,2.5,0,0,0,1.62.52Zm-1.55-.5a1.81,1.81,0,0,1-.6-1.46h-.1a1.94,1.94,0,0,0,.63,1.54Zm-.6-1.46a1.8,1.8,0,0,1,.6-1.47l-.07-.08a1.93,1.93,0,0,0-.63,1.55Zm.6-1.47a2.4,2.4,0,0,1,1.55-.5v-.1a2.5,2.5,0,0,0-1.62.52Zm1.55-.5a2.41,2.41,0,0,1,1.56.5l.06-.08a2.48,2.48,0,0,0-1.62-.52Zm1.56.5a1.76,1.76,0,0,1,.63,1.47h.1a1.86,1.86,0,0,0-.67-1.55Zm-3.32,6.64h3.42v-.1h-3.42Zm3.37,0V222.5h.1V204.86Zm.05,17.59h-3.42v.1h3.42Zm-3.37.05V204.86h-.1V222.5ZM630,206.91l0,0h0Zm12.11,13.44,0,0h0Zm-12.11,0,0,0h0Zm3.71-.75,0,0h0Zm4.71,0,0,0h0Zm1.58-1.48,0,0h0Zm-1.61-10.42,0,0h0Zm-4.61,0,0,0h0Zm-1.61,1.45,0,0h0Zm-4.77,4.5A9,9,0,0,1,630,207l-.07-.07a9.05,9.05,0,0,0-2.66,6.77ZM630,207a8.4,8.4,0,0,1,6.1-2.4v-.1a8.49,8.49,0,0,0-6.17,2.43Zm6.1-2.4a8.1,8.1,0,0,1,6,2.4l.07-.07a8.19,8.19,0,0,0-6-2.43Zm6,2.4a9.09,9.09,0,0,1,2.55,6.7h.1a9.16,9.16,0,0,0-2.58-6.77Zm2.55,6.7a9,9,0,0,1-2.57,6.66l.07.07a9,9,0,0,0,2.6-6.73Zm-2.57,6.66a8.13,8.13,0,0,1-6,2.41v.1a8.22,8.22,0,0,0,6-2.44Zm-6,2.41a8.44,8.44,0,0,1-6.09-2.41l-.07.07a8.54,8.54,0,0,0,6.16,2.44ZM630,220.31a8.84,8.84,0,0,1-2.63-6.66h-.1a8.93,8.93,0,0,0,2.66,6.73Zm.82-6.66c0,2.92.94,4.93,2.83,6l.05-.09c-1.85-1-2.78-3-2.78-5.9Zm2.83,6a4.89,4.89,0,0,0,2.4.55v-.1a4.8,4.8,0,0,1-2.35-.54Zm2.4.55a4.72,4.72,0,0,0,2.37-.55l-.05-.09a4.6,4.6,0,0,1-2.32.54Zm2.37-.55a5,5,0,0,0,1.59-1.49l-.09-.05a4.68,4.68,0,0,1-1.55,1.45Zm1.59-1.49a8,8,0,0,0,1.15-4.5h-.1a7.94,7.94,0,0,1-1.14,4.45Zm1.15-4.5q0-4.36-2.77-6l-.06.08c1.82,1.06,2.73,3,2.73,5.91Zm-2.77-6a4.53,4.53,0,0,0-2.32-.57v.1a4.38,4.38,0,0,1,2.26.55Zm-2.32-.57a4.67,4.67,0,0,0-2.35.57l0,.08a4.58,4.58,0,0,1,2.3-.55Zm-2.35.57a4.73,4.73,0,0,0-1.62,1.46l.08.06a4.77,4.77,0,0,1,1.59-1.44Zm-1.62,1.46a7.65,7.65,0,0,0-1.28,4.53h.1a7.5,7.5,0,0,1,1.26-4.47Zm20.19.14,0,0h0v0Zm0,13.24v.05h.05v-.05Zm-3.42,0h0v.05h0Zm0-17.64v-.05h0v.05Zm3.16,0h.05v-.05h0Zm.24,1.92h0v.09l.07-.05Zm10.37-.31,0,0h0Zm1.54,16v.05h0v-.05Zm-3.42,0h0v.05h0Zm-2.29-14.7v0h0Zm-1.65-.32a6.72,6.72,0,0,0-4.56,1.74l.06.07a6.66,6.66,0,0,1,4.5-1.71Zm-4.58,1.78V222.5h.1V209.26Zm0,13.19h-3.42v.1h3.42Zm-3.37.05V204.86h-.1V222.5Zm-.05-17.59h3.16v-.1h-3.16Zm3.11,0,.24,1.91h.1l-.24-1.91Zm.32,1.95a9.15,9.15,0,0,1,5.73-2.18v-.1a9.23,9.23,0,0,0-5.79,2.2Zm5.73-2.18a5.45,5.45,0,0,1,4.58,1.86l.07-.06a5.53,5.53,0,0,0-4.65-1.9Zm4.58,1.86q1.51,2,1.52,6.36h.1c0-2.94-.51-5.09-1.55-6.42Zm1.52,6.36v9.64h.1v-9.64Zm.05,9.59h-3.42v.1h3.42Zm-3.37.05v-9.64h-.1v9.64Zm0-9.64c0-2.83-.76-4.55-2.32-5.1l0,.09c1.49.53,2.25,2.19,2.25,5Zm-2.32-5.1a4.61,4.61,0,0,0-1.67-.28v.1a4.7,4.7,0,0,1,1.64.27Zm41.91.61h.05v-.05h-.05Zm0,2.9v0h.05v0Zm-2.12,0v-.05h0v.05Zm0,11.23v.05h.05v-.05Zm-3,0h-.05v.05h.05Zm-.12-2.17h0v-.11l-.07.07Zm-4.82,2.25v.06h0Zm-4.95-.22,0,0h0Zm-2.43-1.3,0,0h0Zm.14-9.7,0,0h0Zm2.25-1.34,0,0h0v0Zm0-.05h.05v0h0Zm-2.8-2,0,0h0Zm-.57-5.17h0Zm1.53-2,0,0h0Zm12.23-1.86h.05v-.05h0Zm0,3.08v0l.06,0V202Zm-7.38-.14v0h0Zm-1.88.7,0,0h0ZM695,217.87l0,0h0v0Zm0-6.61h.05v0H695Zm-5.08,0v0h0Zm-4.22,1.46,0,0h0Zm1.42,7.05v-.05h0ZM685,205a2.86,2.86,0,0,0,1.24,2.54,6.55,6.55,0,0,0,3.7.85v-.1a6.46,6.46,0,0,1-3.64-.83,2.77,2.77,0,0,1-1.2-2.46Zm4.94,3.39h10.46v-.1H690Zm10.41,0v2.9h.1v-2.9Zm0,2.85H698.3v.1h2.12Zm-2.17.05V222.5h.1V211.27Zm0,11.18h-3v.1h3Zm-2.91.05-.12-2.17h-.1l.12,2.17Zm-.2-2.21a9.86,9.86,0,0,1-4.8,2.25l0,.09a9.92,9.92,0,0,0,4.84-2.26Zm-4.8,2.25a12.16,12.16,0,0,1-2.24.18v.1a12.46,12.46,0,0,0,2.26-.18Zm-2.24.18a9.75,9.75,0,0,1-2.69-.4l0,.09a9.56,9.56,0,0,0,2.72.41Zm-2.69-.4a6.89,6.89,0,0,1-2.41-1.29l-.06.07a6.67,6.67,0,0,0,2.44,1.31ZM683.05,221a6.44,6.44,0,0,1-2.12-5.19h-.1A6.52,6.52,0,0,0,683,221.1Zm-2.12-5.19a5.75,5.75,0,0,1,2.26-4.44l-.07-.08a5.88,5.88,0,0,0-2.29,4.52Zm2.26-4.44a8.24,8.24,0,0,1,2.24-1.33l0-.09a8.35,8.35,0,0,0-2.27,1.34Zm2.27-1.38V210h-.1V210Zm0-.09a6.51,6.51,0,0,1-2.78-2l-.08.06a6.59,6.59,0,0,0,2.82,2Zm-2.78-2a4.29,4.29,0,0,1-1-2.64h-.1a4.41,4.41,0,0,0,1,2.7Zm-1-2.64a7,7,0,0,1,.42-2.48l-.09,0a7,7,0,0,0-.43,2.51Zm.42-2.48a5.09,5.09,0,0,1,1.51-2l-.07-.08a5.22,5.22,0,0,0-1.53,2.06Zm1.51-2c1.62-1.36,4.12-2,7.48-2v-.1q-5.05,0-7.55,2.06Zm7.48-2a46.12,46.12,0,0,1,4.72.19v-.1a46.33,46.33,0,0,0-4.73-.19Zm4.67.14V202h.1V198.9Zm.06,3a21.92,21.92,0,0,0-4.18-.4v.1a22.45,22.45,0,0,1,4.16.39Zm-4.18-.4a15.66,15.66,0,0,0-3.22.26l0,.1a15.37,15.37,0,0,1,3.2-.26Zm-3.22.26a5.8,5.8,0,0,0-1.9.71l.06.08a5.93,5.93,0,0,1,1.86-.69Zm-1.9.71A2.81,2.81,0,0,0,685,205h.1a2.74,2.74,0,0,1,1.44-2.45Zm2.63,17.59a8,8,0,0,0,5.91-2.19l-.07-.07a7.94,7.94,0,0,1-5.84,2.16Zm5.93-2.22v-6.61H695v6.61Zm-.05-6.66h-5.08v.1l5.08,0Zm-5.08,0a6,6,0,0,0-4.26,1.47l.07.07a5.86,5.86,0,0,1,4.19-1.44Zm-4.26,1.47a4.22,4.22,0,0,0-1.4,3.2h.1a4.15,4.15,0,0,1,1.37-3.13Zm-1.4,3.2a4.3,4.3,0,0,0,.71,2.55,3.83,3.83,0,0,0,2.13,1.39l0-.1a3.6,3.6,0,0,1-2.07-1.35,4.17,4.17,0,0,1-.7-2.49Zm2.84,3.94a7.38,7.38,0,0,0,2,.26V220a7.16,7.16,0,0,1-2-.26Zm34.64-18.11h0v-.05h0Zm-7.16,0h-.05v.05h.05Zm0-3v-.05h-.05v.05Zm17.74,0h0v-.05h0Zm0,3v.05h0v-.05Zm-7.16,0v-.05h0v.05Zm0,20.78v.05h.05v-.05Zm-3.42,0h0v.05h0Zm0-20.83H714.6v.1h7.16Zm-7.11.05v-3h-.1v3Zm0-3h17.74v-.1H714.6Zm17.69,0v3h.1v-3Zm.05,3h-7.16v.1h7.16Zm-7.21.05V222.5h.1V201.72Zm0,20.73h-3.42v.1h3.42Zm-3.37.05V201.72h-.1V222.5ZM747.6,208v0l.06,0V208Zm-4.39,0v0h0Zm-1.47.63,0,0h0Zm-1.69,1.54,0,0v0h0Zm0,12.34v.05h.05v-.05Zm-3.42,0h0v.05h0Zm0-17.64v-.05h0v.05Zm3.28,0H740v-.05h-.05Zm.14,2.45h0v.13l.09-.1Zm3.74-2.41v0h0Zm3.81-.14h0v0h0Zm0,3.18a8.36,8.36,0,0,0-2.27-.27v.1a8.15,8.15,0,0,1,2.25.27Zm-2.27-.27a7.27,7.27,0,0,0-2.15.27l0,.1a7,7,0,0,1,2.12-.27Zm-2.15.27a7.49,7.49,0,0,0-1.48.64l0,.09a6.76,6.76,0,0,1,1.46-.63Zm-1.48.64a4.92,4.92,0,0,0-1.71,1.55l.09.06a4.71,4.71,0,0,1,1.67-1.52ZM740,210.16V222.5h.1V210.16Zm0,12.29h-3.42v.1h3.42Zm-3.37.05V204.86h-.1V222.5Zm0-17.59h3.28v-.1h-3.28Zm3.23,0,.14,2.44h.1l-.14-2.44Zm.23,2.47A7.57,7.57,0,0,1,743.8,205l0-.1a7.76,7.76,0,0,0-3.76,2.43Zm3.72-2.39a5.89,5.89,0,0,1,2-.31v-.1a6.18,6.18,0,0,0-2.05.31Zm2-.31a7.25,7.25,0,0,1,1.77.17l0-.1a7.43,7.43,0,0,0-1.79-.17Zm1.73.12V208h.1v-3.23Zm4.68,2.05,0,0h0Zm10.77,0,0,0h0Zm1.76,7v0h0v0Zm-11.66,0v-.05h-.05v.05Zm10.68,5.64h.06v-.06h-.07Zm0,2.89,0,0h0v0Zm-2.44-11v.05h0v-.05Zm-.91-2.77,0,0h0Zm-6.11-.05,0,0h0Zm-1.13,2.82h-.05v.05h.05Zm6,11.43q-4.82,0-7.22-2.34t-2.4-7.06h-.1q0,4.74,2.43,7.13t7.29,2.37Zm-9.62-9.4a8.31,8.31,0,0,1,2.67-6.47l-.07-.08a8.44,8.44,0,0,0-2.7,6.55Zm2.67-6.47a7.84,7.84,0,0,1,5.46-2.21v-.1a8,8,0,0,0-5.53,2.23Zm5.46-2.21a6.45,6.45,0,0,1,5.23,2.24l.08-.07a6.59,6.59,0,0,0-5.31-2.27Zm5.23,2.24a8.44,8.44,0,0,1,1.75,5.59h.1a8.56,8.56,0,0,0-1.77-5.66Zm1.75,5.59v1.33h.1v-1.33Zm0,1.28H753.1v.1h11.66Zm-11.71.05a6.94,6.94,0,0,0,1,3.93,5,5,0,0,0,3,2l0-.09a5,5,0,0,1-2.93-2,6.85,6.85,0,0,1-1-3.87Zm4,6a12,12,0,0,0,2.9.26v-.1a12.43,12.43,0,0,1-2.88-.25Zm2.9.26a14.38,14.38,0,0,0,3.86-.53l0-.1a14.16,14.16,0,0,1-3.83.53Zm3.79-.58v2.89h.11v-2.89Zm0,2.84a19.74,19.74,0,0,1-4.55.44v.1a20.72,20.72,0,0,0,4.58-.44Zm-2.38-11a4.29,4.29,0,0,0-.92-2.8l-.07.06a4.27,4.27,0,0,1,.89,2.74Zm-.92-2.8a3.6,3.6,0,0,0-3-1.32v.1a3.54,3.54,0,0,1,2.89,1.28Zm-3-1.32a4.35,4.35,0,0,0-3.23,1.26l.07.07a4.24,4.24,0,0,1,3.16-1.23Zm-3.23,1.26a4,4,0,0,0-1.14,2.86h.1a3.88,3.88,0,0,1,1.11-2.79Zm-1.09,2.91h8.15v-.1h-8.15Zm18.75-2.08,0,0h0v0Zm0,13.24v.05h0v-.05Zm-3.42,0h0v.05h0Zm0-17.64v-.05h0v.05Zm3.16,0h.05v-.05h0Zm.24,1.92h0v.09l.07-.05Zm10.37-.31,0,0h0Zm1.54,16v.05h0v-.05Zm-3.42,0h0v.05h0Zm-2.29-14.7v0h0Zm-1.65-.32a6.77,6.77,0,0,0-4.57,1.74l.07.07a6.66,6.66,0,0,1,4.5-1.71Zm-4.58,1.78V222.5h.1V209.26Zm.05,13.19h-3.42v.1h3.42Zm-3.37.05V204.86h-.1V222.5Zm-.05-17.59h3.16v-.1h-3.16Zm3.11,0,.24,1.91h.1l-.24-1.91Zm.32,1.95a9.15,9.15,0,0,1,5.73-2.18v-.1a9.23,9.23,0,0,0-5.79,2.2Zm5.73-2.18a5.41,5.41,0,0,1,4.57,1.86l.08-.06a5.54,5.54,0,0,0-4.65-1.9Zm4.57,1.86q1.53,2,1.53,6.36h.1c0-2.94-.51-5.09-1.55-6.42Zm1.53,6.36v9.64h.1v-9.64Zm.05,9.59h-3.42v.1h3.42Zm-3.37.05v-9.64h-.1v9.64Zm0-9.64c0-2.83-.76-4.55-2.32-5.1l0,.09c1.49.53,2.25,2.19,2.25,5Zm-2.32-5.1a4.64,4.64,0,0,0-1.67-.28v.1a4.7,4.7,0,0,1,1.64.27Zm13.48-1,0,0h0Zm3.34-1.67,0-.05h0Zm5.38-.46v.05h0v-.05Zm0-7.59v0h-.05v0Zm3.4,0h0v0h0Zm0,25.43v.05h0v-.05Zm-3.06,0h0v.05h0Zm-.14-2h.05v-.13l-.08.11Zm-3.16,2.05,0,0h0Zm-5-.48,0,0h0ZM790.87,221l0,0h0Zm-1.31-1.63,0,0h0Zm-.33-9.62,0,0h0Zm4.46-.9,0,0h0ZM792.34,211l-.05,0h0Zm0,6.15-.05,0h0Zm1.11,1.85,0,0h0Zm6.37-.38,0,0h0Zm.51-.7,0,0h0Zm0-10.51h0v-.05h0Zm-.34,0v.05h0Zm-4.19.3,0,0h0Zm-4.13-.79a9.73,9.73,0,0,1,3.31-1.66l0-.1a10.08,10.08,0,0,0-3.35,1.69Zm3.31-1.66a12.19,12.19,0,0,1,3.23-.53v-.1a12.39,12.39,0,0,0-3.26.53Zm3.23-.53c.93,0,1.64,0,2.14.07v-.1c-.5-.05-1.21-.07-2.14-.07Zm2.19,0v-7.59h-.1v7.59Zm0-7.54h3.4V197h-3.4Zm3.35-.05V222.5h.1V197.07Zm0,25.38h-3.06v.1h3.06Zm-3,.05-.14-2h-.1l.14,2Zm-.22-2.06a6.09,6.09,0,0,1-3.14,2l0,.1a6.23,6.23,0,0,0,3.19-2.07Zm-3.14,2a5.52,5.52,0,0,1-1.66.25v.1a5.72,5.72,0,0,0,1.69-.25Zm-1.66.25a7.58,7.58,0,0,1-1.65-.17l0,.1a7.82,7.82,0,0,0,1.67.17Zm-1.65-.17a7,7,0,0,1-1.63-.56l0,.09a6.74,6.74,0,0,0,1.65.57Zm-1.63-.56a7.13,7.13,0,0,1-1.52-1.05l-.07.08a7.36,7.36,0,0,0,1.55,1.06Zm-1.52-1.05a7,7,0,0,1-1.31-1.61l-.09,0a7.28,7.28,0,0,0,1.33,1.64Zm-1.31-1.61a9.56,9.56,0,0,1-1.22-5h-.1a9.78,9.78,0,0,0,1.23,5Zm-1.22-5a10.15,10.15,0,0,1,.9-4.62l-.09,0a10.3,10.3,0,0,0-.91,4.67Zm.9-4.62a8.61,8.61,0,0,1,2.38-2.93l-.07-.07a8.64,8.64,0,0,0-2.4,3Zm4.38-1a5.64,5.64,0,0,0-1.37,2.14l.1,0a5.24,5.24,0,0,1,1.34-2.09Zm-1.37,2.14a9.33,9.33,0,0,0-.46,3.14h.1a9.15,9.15,0,0,1,.46-3.11Zm-.46,3.14a8.84,8.84,0,0,0,.45,3.05l.09,0a8.82,8.82,0,0,1-.44-3Zm.45,3.05A5.2,5.2,0,0,0,793.4,219l.07-.07a5.17,5.17,0,0,1-1.1-1.83ZM793.4,219a3.88,3.88,0,0,0,2.87,1.21v-.1a3.79,3.79,0,0,1-2.8-1.18Zm2.87,1.21a4.6,4.6,0,0,0,3.58-1.59l-.08-.06a4.5,4.5,0,0,1-3.5,1.55Zm3.58-1.59a3.41,3.41,0,0,0,.52-.71l-.09,0a3.42,3.42,0,0,1-.51.69Zm.52-.73V207.36h-.1v10.51Zm0-10.56-.34,0v.1l.34,0Zm-.34,0a16.85,16.85,0,0,0-1.89-.1v.1a16.34,16.34,0,0,1,1.87.1Zm-1.89-.1a7.45,7.45,0,0,0-2.32.4l0,.09a7.59,7.59,0,0,1,2.29-.39Zm-2.32.4a5.14,5.14,0,0,0-2.12,1.22l.07.07a5.07,5.07,0,0,1,2.08-1.2Zm13.58,14.9h-.05v0h.05Zm0-3,0-.05h-.07v.06ZM818.1,217l0,0h0Zm-1.68-1.13,0,0h0Zm-2.49-1.15,0,.05h0Zm-3.15-1.94,0,0h0Zm.62-6.71,0,0h0Zm9.84-1.16h0v0h0Zm0,2.93v.05h.06v-.06ZM815,207.6v0h0Zm-1.31.51,0,0h0Zm-.22,2.48,0,0h0Zm1.53,1,0,0h0Zm2.52,1.21,0,0h0Zm3.16,2,0,0h0Zm-.79,6.65,0,0h0Zm-6.2,1.3a31.8,31.8,0,0,1-4.32-.3v.1a31.84,31.84,0,0,0,4.33.3Zm-4.28-.25v-3h-.1v3Zm-.06-3a19.68,19.68,0,0,0,4.53.53v-.1a19.37,19.37,0,0,1-4.5-.53Zm4.53.53a9.24,9.24,0,0,0,3.45-.49,2.13,2.13,0,0,0,.88-.62,1.35,1.35,0,0,0,.3-.87h-.1a1.28,1.28,0,0,1-.28.81,2,2,0,0,1-.84.59,9.17,9.17,0,0,1-3.41.48Zm4.63-2a1.54,1.54,0,0,0-.38-1.13l-.07.07a1.44,1.44,0,0,1,.35,1.06Zm-.38-1.13a6,6,0,0,0-1.69-1.14l0,.09a6,6,0,0,1,1.66,1.12Zm-1.69-1.14L814,214.63l0,.09,2.49,1.14ZM814,214.63a13.2,13.2,0,0,1-3.13-1.94l-.07.07a13.11,13.11,0,0,0,3.15,2Zm-3.13-1.94a4.41,4.41,0,0,1-1.34-3.21h-.1a4.52,4.52,0,0,0,1.37,3.28Zm-1.34-3.21a4,4,0,0,1,1.94-3.41l0-.09a4.09,4.09,0,0,0-2,3.5Zm1.94-3.41a10.51,10.51,0,0,1,5.92-1.43v-.1a10.6,10.6,0,0,0-6,1.44Zm5.92-1.43a28.37,28.37,0,0,1,3.89.27l0-.1a28.88,28.88,0,0,0-3.91-.27Zm3.85.22v2.93h.1v-2.93Zm.06,2.88a20.71,20.71,0,0,0-3.77-.4v.1a20.51,20.51,0,0,1,3.75.4Zm-3.77-.4a11.51,11.51,0,0,0-2.49.21l0,.1a11.24,11.24,0,0,1,2.47-.21Zm-2.49.21a4,4,0,0,0-1.33.52l.06.08a3.72,3.72,0,0,1,1.29-.5Zm-1.33.52a1.5,1.5,0,0,0-.72,1.29h.1a1.39,1.39,0,0,1,.68-1.21Zm-.72,1.29a1.7,1.7,0,0,0,.49,1.26l.07-.07a1.6,1.6,0,0,1-.46-1.19Zm.49,1.26a6.89,6.89,0,0,0,1.55,1l0-.09a7.2,7.2,0,0,1-1.53-1Zm1.55,1,2.51,1.21,0-.09L815,211.55Zm2.51,1.21a15.71,15.71,0,0,1,3.15,2l.07-.07a15.34,15.34,0,0,0-3.17-2Zm3.15,2A4.32,4.32,0,0,1,822,218h.1a4.43,4.43,0,0,0-1.35-3.3ZM822,218a3.78,3.78,0,0,1-2.1,3.34l.06.09a3.91,3.91,0,0,0,2.14-3.43Zm-2.1,3.34a11.92,11.92,0,0,1-6.17,1.34v.1a12.11,12.11,0,0,0,6.23-1.35Z"/></g></g></svg>